<svg xmlns="http://www.w3.org/2000/svg" width="59" height="59" viewBox="0 0 59 59">
    <g id="Design-v.2.1" stroke="none" stroke-width="1" fill-rule="evenodd" opacity="1">
        <g id="Playground-Review" transform="translate(-1203.000000, -647.000000)">
            <g id="Group-34" transform="translate(0.000000, 596.000000)">
                <g id="Group-13-Copy-2" transform="translate(1162.714996, 51.000000)">
                    <g id="Group-21">
                        <g id="basketball" transform="translate(39.826367, 0.000000)">
                            <g id="Layer_1">
                                <path d="M58.5,29.5 C58.5,13.4837423 45.5162577,0.5 29.5,0.5 C13.4837423,0.5 0.5,13.4837423 0.5,29.5 C0.5,45.5162577 13.4837423,58.5 29.5,58.5 C45.5162577,58.5 58.5,45.5162577 58.5,29.5 Z M5.5,29.5 C5.5,16.245166 16.245166,5.5 29.5,5.5 C42.754834,5.5 53.5,16.245166 53.5,29.5 C53.5,42.754834 42.754834,53.5 29.5,53.5 C16.245166,53.5 5.5,42.754834 5.5,29.5 Z" id="Oval"></path>
                                <path d="M39.0416667,29.5 C39.0416667,37.0064362 42.0134628,44.0470992 47.2082162,49.2610746 L49.3334504,47.1436754 C44.6932134,42.4862682 42.0416667,36.2043275 42.0416667,29.5 C42.0416667,22.7956725 44.6932134,16.5137318 49.3334504,11.8563246 L47.2082162,9.73892538 C42.0134628,14.9529008 39.0416667,21.9935638 39.0416667,29.5 Z" id="Shape"></path>
                                <path d="M19.9583333,29.5 C19.9583333,21.9935638 16.9865372,14.9529008 11.7917838,9.73892538 L9.66654956,11.8563246 C14.3067866,16.5137318 16.9583333,22.7956725 16.9583333,29.5 C16.9583333,36.2043275 14.3067866,42.4862682 9.66654956,47.1436754 L11.7917838,49.2610746 C16.9865372,44.0470992 19.9583333,37.0064362 19.9583333,29.5 Z" id="Shape"></path>
                                <polygon id="Shape" points="30.5 3 27.5 3 27.5 56 30.5 56"></polygon>
                                <polygon id="Shape" points="56 30.5 56 27.5 3 27.5 3 30.5"></polygon>
                            </g>
                        </g>
                    </g>
                </g>
            </g>
        </g>
    </g>
</svg>