<?xml version="1.0" encoding="utf-8"?>
<!-- Generator: Adobe Illustrator 20.0.0, SVG Export Plug-In . SVG Version: 6.00 Build 0)  -->
<svg version="1.1" id="Layer_1" xmlns="http://www.w3.org/2000/svg" xmlns:xlink="http://www.w3.org/1999/xlink" x="0px" y="0px"
	 viewBox="0 0 59 59" style="enable-background:new 0 0 59 59;" xml:space="preserve">
<path d="M29,0C13,0,0,13,0,29s13,29,29,29s29-13,29-29S45,0,29,0z M52.9,27h-11c0.4-5,2.3-9.7,5.4-13.6C50.4,17.1,52.5,21.8,52.9,27
	z M30.5,27V5.1c5.6,0.3,10.7,2.6,14.6,6.2c-3.7,4.4-5.9,9.9-6.3,15.8H30.5z M27.5,27h-7.9c-0.4-5.9-2.7-11.5-6.5-16
	C17,7.6,22,5.4,27.5,5.1V27z M27.5,30v22.9C22,52.6,17,50.4,13.1,47c4-4.7,6.3-10.7,6.5-17H27.5z M30.5,30h8.3
	c0.2,6.2,2.5,12.1,6.3,16.8c-3.9,3.6-9,5.8-14.6,6.2V30z M11,13.1c3.2,3.9,5.2,8.7,5.6,13.9H5.1C5.5,21.7,7.7,16.9,11,13.1z M5,30
	h11.7c-0.2,5.5-2.2,10.7-5.7,14.9C7.5,40.9,5.3,35.7,5,30z M47.2,44.6C44,40.5,42,35.4,41.8,30H53C52.7,35.6,50.6,40.6,47.2,44.6z"
	/>
</svg>
