<svg xmlns="http://www.w3.org/2000/svg" width="19" height="23" viewBox="0 0 19 23">
    <g id="Symbols" stroke="none" stroke-width="1" fill-rule="evenodd">
        <g id="Rating-plus-Copy" transform="translate(-29.000000, -1.000000)">
            <g id="thumb_up_filled-copy" transform="translate(38.119048, 12.500000) scale(-1, -1) translate(-38.119048, -12.500000) translate(28.619048, 1.000000)">
                <g id="Слой_1" transform="translate(-0.000000, 0.000000)">
                    <path d="M14.8952381,22.004329 L4.7877551,22.004329 C2.14810612,22.004329 0,19.8377076 0,17.1741104 L0,12.1292155 C0,11.0891084 0.301628571,10.1359453 0.897438095,9.29495059 L6.8581932,1.0261531 C7.22844626,0.398224686 7.85670612,0 8.51156463,0 C9.39517143,0 10.6394558,0.765857988 10.6394558,2.46877838 C10.6394558,2.95609376 10.5075265,3.28347524 10.3798531,3.6001229 C10.3495306,3.67472294 10.3181442,3.75307982 10.2867578,3.8373403 C10.087268,4.40140249 9.03289796,6.80202112 8.4807102,8.05090096 C10.1170585,8.05304772 13.7451129,8.06324485 15.1239864,8.10403337 L15.1245184,8.10403337 C16.6406408,8.10403337 17.555102,9.14092028 17.555102,10.1429223 C17.555102,10.4874779 17.498181,10.9565458 17.4503034,11.2866107 C17.9195034,11.5689101 18.6190476,12.1710774 18.6190476,13.2562665 C18.6190476,14.0097806 18.260498,14.5690126 17.9147156,14.9339624 C18.2663497,15.2597338 18.6190476,15.7744204 18.6190476,16.5300813 C18.6190476,17.60722 17.8838612,18.2609096 17.3572082,18.5909746 C17.4609429,18.8716639 17.555102,19.2489577 17.555102,19.6965579 C17.555102,20.6604549 16.5432898,22.004329 14.8952381,22.004329 L14.8952381,22.004329 Z" id="Down"></path>
                </g>
            </g>
        </g>
    </g>
</svg>