<svg xmlns="http://www.w3.org/2000/svg" width="23" height="23" viewBox="0 0 23 23">
    <g id="Design-v.2.1" stroke="none" stroke-width="1" fill-rule="evenodd">
        <g id="Profile-Edit" transform="translate(-518.000000, -525.000000)">
            <g id="Group-27" transform="translate(478.000000, 223.000000)">
                <g id="email" transform="translate(40.293679, 302.600000)">
                    <g id="Layer_1">
                        <g id="Group">
                            <path d="M11,2.53 L19.8,7.81 L19.8,19.8 L2.2,19.8 L2.2,7.81 L11,2.53 L11,2.53 Z M11,0 L1.1,5.94 C0.44,6.38 0,7.04 0,7.81 L0,19.8 C0,21.01 0.99,22 2.2,22 L19.8,22 C21.01,22 22,21.01 22,19.8 L22,7.81 C22,7.04 21.56,6.27 20.9,5.94 L11,0 L11,0 L11,0 Z" id="Shape"></path>
                        </g>
                        <g id="Group" transform="translate(0.000000, 7.700000)">
                            <path d="M11,6.6 L2.2,0 L0,0.11 L0,12.1 C0,13.31 0.99,14.3 2.2,14.3 L19.8,14.3 C21.01,14.3 22,13.31 22,12.1 L22,0.11 L19.8,0 L11,6.6 L11,6.6 Z" id="Shape"></path>
                        </g>
                    </g>
                </g>
            </g>
        </g>
    </g>
</svg>