<svg xmlns="http://www.w3.org/2000/svg" width="26" height="26" viewBox="0 0 26 26">
    <g id="Symbols" stroke="none" stroke-width="1" fill-rule="evenodd">
        <g id="Footer" transform="translate(-120.000000, -110.000000)">
            <g id="Group-30">
                <g id="Group-33">
                    <g id="Group-27" transform="translate(120.000000, 39.000000)">
                        <g id="facebook_filled" transform="translate(0.000000, 71.000000)">
                            <g id="Слой_1">
                                <path d="M20.8,0 L5.2,0 C2.33272,0 0,2.33272 0,5.2 L0,20.8 C0,23.66728 2.33272,26 5.2,26 L20.8,26 C23.66728,26 26,23.66728 26,20.8 L26,5.2 C26,2.33272 23.66728,0 20.8,0 L20.8,0 Z M20.28,8.84 L18.72,8.84 C17.6046,8.84 17.16,9.10208 17.16,9.88 L17.16,11.44 L20.28,11.44 L19.76,14.56 L17.16,14.56 L17.16,24.96 L13.52,24.96 L13.52,14.56 L11.96,14.56 L11.96,11.44 L13.52,11.44 L13.52,9.88 C13.52,7.44796 14.34212,5.72 17.16,5.72 C18.66904,5.72 20.28,6.24 20.28,6.24 L20.28,8.84 L20.28,8.84 Z" id="Shape"></path>
                            </g>
                        </g>
                    </g>
                </g>
            </g>
        </g>
    </g>
</svg>