<svg xmlns="http://www.w3.org/2000/svg" width="58" height="57" viewBox="0 0 58 57">
    <g id="Design-v.2.1" stroke="none" stroke-width="1" fill-rule="evenodd">
        <g id="Playground" transform="translate(-814.000000, -650.000000)">
            <g id="Group-34" transform="translate(0.000000, 596.000000)">
                <g id="Group-13" transform="translate(786.628998, 54.000000)">
                    <g id="football2_filled" transform="translate(28.000000, 0.000000)">
                        <g id="Слой_1">
                            <path d="M28.5,0 C12.7858125,0 0,12.7858125 0,28.5 C0,44.2141875 12.7858125,57 28.5,57 C44.2141875,57 57,44.2141875 57,28.5 C57,12.7858125 44.2141875,0 28.5,0 L28.5,0 Z M51.088625,41.5993125 L41.0910625,43.901875 L37.3765625,39.7563125 L41.517375,26.9669375 L47.9001875,23.5374375 L54.492,31.124375 C54.1131875,34.9125 52.9161875,38.4619375 51.088625,41.5993125 L51.088625,41.5993125 Z M15.97425,43.9078125 L5.90425,41.588625 C4.092125,38.472625 2.9010625,34.9540625 2.5139375,31.1968125 L9.184125,23.5184375 L15.4149375,26.5631875 L19.691125,39.7575 L15.97425,43.9078125 L15.97425,43.9078125 Z M47.95125,11.0829375 L47.04875,21.3001875 L41.0506875,24.521875 L29.7171875,16.261625 L29.7171875,8.509625 L38.9583125,4.567125 C42.408,6.08 45.4705625,8.314875 47.95125,11.0829375 L47.95125,11.0829375 Z M18.0725625,4.552875 L27.343375,8.509625 L27.343375,16.2628125 L16.2675625,24.336625 L10.0094375,21.277625 L9.1021875,11.02 C11.5816875,8.272125 14.6359375,6.0550625 18.0725625,4.552875 L18.0725625,4.552875 Z M23.049375,54.0490625 L17.8588125,45.364875 L21.5614375,41.23 L35.50625,41.23 L39.2076875,45.3613125 L34.03375,54.0324375 C32.2489375,54.416 30.3988125,54.625 28.5,54.625 C26.630875,54.625 24.80925,54.423125 23.049375,54.0490625 L23.049375,54.0490625 Z" id="Shape"></path>
                        </g>
                    </g>
                </g>
            </g>
        </g>
    </g>
</svg>