<?xml version="1.0" encoding="utf-8"?>
<!-- Generator: Adobe Illustrator 20.0.0, SVG Export Plug-In . SVG Version: 6.00 Build 0)  -->
<svg version="1.1" id="Layer_1" xmlns="http://www.w3.org/2000/svg" xmlns:xlink="http://www.w3.org/1999/xlink" x="0px" y="0px"
	 viewBox="0 0 27 23" style="enable-background:new 0 0 27 23;" xml:space="preserve">
<g>
	<path d="M14,8.5c0.8,0.7,1.3,1.8,1.3,2.9c0,0.6-0.1,1.1-0.4,1.7c0.4,0.2,0.9,0.3,1.4,0.3c0.2,0,0.5,0,0.7-0.1
		c0.2-0.6,0.3-1.2,0.3-1.9c0-1.5-0.6-2.9-1.5-4C15.1,7.6,14.5,7.9,14,8.5z"/>
	<path d="M11.3,15.4c-2.2,0-4-1.8-4-4c0-1.7,1.1-3.1,2.5-3.7c0.4-0.9,0.9-1.6,1.6-2.3c0,0-0.1,0-0.1,0c-3.3,0-6,2.7-6,6
		c0,1.3,0.4,2.5,1.1,3.5l-2.3,2.3L2,15l-1.4,1.4l2.1,2.1l-2.1,2.1L2,22.1L4.1,20l2.1,2.1l1.4-1.4l-2.1-2.1l2.3-2.3
		c1,0.7,2.2,1.1,3.5,1.1c0.9,0,1.7-0.2,2.4-0.5C12.8,16.5,12,16,11.3,15.4C11.4,15.4,11.3,15.4,11.3,15.4z"/>
	<path d="M19.3,0.4v2h3.6l-3.1,3.1c-1-0.7-2.2-1.1-3.5-1.1c-3.3,0-6,2.7-6,6s2.7,6,6,6s6-2.7,6-6c0-1.3-0.4-2.5-1.1-3.5l3.1-3.1v3.6
		h2v-7H19.3z M16.3,14.4c-2.2,0-4-1.8-4-4s1.8-4,4-4s4,1.8,4,4S18.5,14.4,16.3,14.4z"/>
</g>
</svg>
