<svg xmlns="http://www.w3.org/2000/svg" width="57" height="58" viewBox="0 0 57 58">
    <g id="Design-v.2.1" stroke="none" stroke-width="1" fill-rule="evenodd">
        <g id="Playground" transform="translate(-1005.000000, -649.000000)">
            <g id="Group-34" transform="translate(0.000000, 596.000000)">
                <g id="Group-22" transform="translate(975.171997, 51.000000)">
                    <g id="hockey" transform="translate(30.000000, 2.000000)">
                        <g id="Layer_1">
                            <path d="M30.5704925,18.4698098 C30.5704925,14.0740623 23.7252996,10.8886132 15.4281976,10.8886132 C7.13109574,10.8886132 0.285902812,14.0740623 0.285902812,18.4698098 C0.285902812,22.8655572 7.13109574,26.0510063 15.4281976,26.0510063 C23.7252996,26.0510063 30.5704925,22.8655572 30.5704925,18.4698098 Z M2.28590281,18.4698098 C2.28590281,15.5961682 8.10415203,12.8886132 15.4281976,12.8886132 C22.7522433,12.8886132 28.5704925,15.5961682 28.5704925,18.4698098 C28.5704925,21.3434513 22.7522433,24.0510063 15.4281976,24.0510063 C8.10415203,24.0510063 2.28590281,21.3434513 2.28590281,18.4698098 Z M15.4275492,24.1310541 C7.7137746,24.1310541 0,22.1566952 0,17.5498575 L0,23.4729345 C0,28.0797721 4.4078712,32.9059829 15.4275492,32.9059829 C26.4472272,32.9059829 30.8550984,28.0797721 30.8550984,23.4729345 L30.8550984,17.5498575 C30.8550984,22.1566952 23.1413238,24.1310541 15.4275492,24.1310541 Z" id="Combined-Shape"></path>
                            <path d="M55.9799642,0 L51.3516995,0 L41.8747764,32.6866097 C40.3320215,37.951567 35.4833631,41.6809117 29.9735242,41.6809117 L9.9177102,41.6809117 C5.73023256,41.6809117 2.2039356,45.1908832 2.2039356,49.3589744 C2.2039356,53.5270655 5.73023256,57.037037 9.9177102,57.037037 L27.1084079,57.037037 C34.6017889,57.037037 41.2135957,52.2108262 43.1971377,44.97151 L44.078712,41.6809117 L44.078712,41.6809117 L55.9799642,0 L55.9799642,0 Z M28.6511628,52.6495726 L13.2236136,52.6495726 L13.2236136,46.0683761 L28.6511628,46.0683761 L28.6511628,52.6495726 L28.6511628,52.6495726 Z" id="Shape"></path>
                        </g>
                    </g>
                </g>
            </g>
        </g>
    </g>
</svg>