<?xml version="1.0" encoding="utf-8"?>
<!-- Generator: Adobe Illustrator 20.0.0, SVG Export Plug-In . SVG Version: 6.00 Build 0)  -->
<svg version="1.1" id="Layer_1" xmlns="http://www.w3.org/2000/svg" xmlns:xlink="http://www.w3.org/1999/xlink" x="0px" y="0px"
	 viewBox="0 0 57 58" style="enable-background:new 0 0 57 58;" xml:space="preserve">
<style type="text/css">
	.st0{clip-path:url(#SVGID_2_);}
	.st1{clip-path:url(#SVGID_4_);fill:#3A3A3A;}
</style>
<g id="hockey" transform="translate(30.000000, 2.000000)">
	<g id="Layer_1_1_">
		<path id="Shape" d="M26.2-2L26.2-2h-4.6"/>
	</g>
</g>
<g>
	<defs>
		<path id="SVGID_1_" d="M332-166.9c-8,0-16-2-16-6.6v5.9c0,4.6,4.6,9.4,16,9.4s16-4.8,16-9.4v-5.9C348-168.9,340-166.9,332-166.9z
			 M332-167c-7.7,0-13.9-2.7-13.9-5.6c0-2.9,6.1-5.6,13.9-5.6s13.9,2.7,13.9,5.6C345.9-169.7,339.7-167,332-167z M332-165
			c8.8,0,16-3.2,16-7.6c0-4.4-7.2-7.6-16-7.6c-8.8,0-16,3.2-16,7.6C316-168.1,323.2-165,332-165z"/>
	</defs>
	<clipPath id="SVGID_2_">
		<use xlink:href="#SVGID_1_"  style="overflow:visible;"/>
	</clipPath>
	<g class="st0">
		<defs>
			<rect id="SVGID_3_" x="-689" y="-925.1" width="1440" height="1909"/>
		</defs>
		<clipPath id="SVGID_4_">
			<use xlink:href="#SVGID_3_"  style="overflow:visible;"/>
		</clipPath>
		<rect x="311" y="-185.1" class="st1" width="42" height="32"/>
	</g>
</g>
<path d="M32,18.1C31.4,14,24.4,11,16,11S0.6,14,0,18.1c0-0.1,0,5.5,0,5.5C0,28.2,4.6,33,16,33s16-4.8,16-9.4C32,23.6,32,18,32,18.1z
	 M16,13c7.7,0,13.9,2.7,13.9,5.6s-6.1,5.6-13.9,5.6S2.1,21.4,2.1,18.6S8.3,13,16,13z"/>
<path d="M51.5,0L42,32.7c-1.5,5.3-6.4,9-11.9,9H10.1c-4.2,0-7.7,3.5-7.7,7.7S5.9,57,10.1,57h17.2c7.5,0,14.1-4.8,16.1-12.1l0.9-3.3
	L56.2,0H51.5z M29,53H13v-7h16V53z"/>
</svg>
