<?xml version="1.0" encoding="utf-8"?>
<!-- Generator: Adobe Illustrator 20.0.0, SVG Export Plug-In . SVG Version: 6.00 Build 0)  -->
<svg version="1.1" id="Layer_1" xmlns="http://www.w3.org/2000/svg" xmlns:xlink="http://www.w3.org/1999/xlink" x="0px" y="0px"
	 viewBox="0 0 18 16" style="enable-background:new 0 0 18 16;" xml:space="preserve">
<g>
	<path d="M16.2,2h-2.4l-2.1-2H6.3L4.2,2H1.8C0.8,2,0,2.8,0,3.8v10.5c0,1,0.8,1.8,1.8,1.8h14.4c1,0,1.8-0.8,1.8-1.8V3.8
		C18,2.8,17.2,2,16.2,2z M9,13.1c-2.5,0-4.5-1.9-4.5-4.4s2-4.4,4.5-4.4s4.5,1.9,4.5,4.4S11.5,13.1,9,13.1z"/>
	<ellipse cx="9" cy="8.8" rx="3.2" ry="3.1"/>
</g>
</svg>
