<svg xmlns="http://www.w3.org/2000/svg" width="18" height="16" viewBox="0 0 18 16">
    <g id="Design-v.2.1" stroke="none" stroke-width="1" fill-rule="evenodd">
        <g id="Home-360-New-Post" transform="translate(-282.000000, -724.000000)">
            <g id="Group-10" transform="translate(-1.000000, 713.000000)">
                <g id="Image_upload" transform="translate(283.000000, 11.000000)">
                    <g id="img_upload">
                        <g id="camera">
                            <g id="Layer_1">
                                <path d="M16.2,2 L1.8,2 C0.81,2 0,2.7875 0,3.75 L0,14.25 C0,15.2125 0.81,16 1.8,16 L16.2,16 C17.19,16 18,15.2125 18,14.25 L18,3.75 C18,2.7875 17.19,2 16.2,2 L16.2,2 Z M9,13.125 C6.48,13.125 4.5,11.2 4.5,8.75 C4.5,6.3 6.48,4.375 9,4.375 C11.52,4.375 13.5,6.3 13.5,8.75 C13.5,11.2 11.52,13.125 9,13.125 L9,13.125 Z" id="Shape"></path>
                                <ellipse id="Oval" cx="9" cy="8.75" rx="3.15" ry="3.0625"></ellipse>
                                <polygon id="Shape" points="14.4 2.625 11.7 0 6.3 0 3.6 2.625"></polygon>
                            </g>
                        </g>
                    </g>
                </g>
            </g>
        </g>
    </g>
</svg>