<svg xmlns="http://www.w3.org/2000/svg" width="23" height="23" viewBox="0 0 23 23">
    <g id="Design-Final" stroke="none" stroke-width="1" fill-rule="evenodd">
        <g id="Blog_new(edit)" transform="translate(-518.000000, -386.000000)">
            <g id="Group-20" transform="translate(478.000000, 214.000000)">
                <g id="info" transform="translate(40.293679, 172.800000)">
                    <g id="Layer_1">
                        <path d="M11,0 C4.9247,0 0,4.9247 0,11 C0,17.0753 4.9247,22 11,22 C17.0753,22 22,17.0753 22,11 C22,4.9247 17.0753,0 11,0 L11,0 Z M12.1,16.5 L9.9,16.5 L9.9,9.9 L12.1,9.9 L12.1,16.5 L12.1,16.5 Z M12.1,7.7 L9.9,7.7 L9.9,5.5 L12.1,5.5 L12.1,7.7 L12.1,7.7 Z" id="Shape"></path>
                    </g>
                </g>
            </g>
        </g>
    </g>
</svg>