<?xml version="1.0" encoding="UTF-8"?>
<svg width="20px" height="10px" viewBox="0 0 20 10" version="1.1" xmlns="http://www.w3.org/2000/svg" xmlns:xlink="http://www.w3.org/1999/xlink">
    <!-- Generator: sketchtool 41.2 (35397) - http://www.bohemiancoding.com/sketch -->
    <title>1B412880-A868-4671-82A0-73E269592127</title>
    <desc>Created with sketchtool.</desc>
    <defs></defs>
    <g id="Symbols" stroke="none" stroke-width="1" fill="none" fill-rule="evenodd">
        <g id="LIVE" transform="translate(0.000000, -1.000000)">
            <g transform="translate(0.000000, 1.000000)">
                <rect id="Rectangle-10" fill="#0BC36F" x="0" y="0" width="20" height="10"></rect>
                <path d="M3.78369141,7.00244141 L6.12158203,7.00244141 L6.12158203,8 L2.53125,8 L2.53125,1.6015625 L3.78369141,1.6015625 L3.78369141,7.00244141 Z M8.05517578,8 L6.81152344,8 L6.81152344,1.6015625 L8.05517578,1.6015625 L8.05517578,8 Z M11.0214844,6.36523438 L11.0698242,6.61132812 L11.0961914,6.61132812 L11.1445312,6.37841797 L12.2124023,1.6015625 L13.5263672,1.6015625 L11.737793,8 L10.4370117,8 L8.6484375,1.6015625 L9.96240234,1.6015625 L11.0214844,6.36523438 Z M17.4550781,5.19189453 L15.3061523,5.19189453 L15.3061523,7.00244141 L17.8330078,7.00244141 L17.8330078,8 L14.0537109,8 L14.0537109,1.6015625 L17.8242188,1.6015625 L17.8242188,2.60351562 L15.3061523,2.60351562 L15.3061523,4.19433594 L17.4550781,4.19433594 L17.4550781,5.19189453 Z" fill="#000000"></path>
            </g>
        </g>
    </g>
</svg>