<svg xmlns="http://www.w3.org/2000/svg" width="18" height="25" viewBox="0 0 18 25">
    <g id="Design-v.2.1" stroke="none" stroke-width="1" fill-rule="evenodd">
        <g id="Profile-Edit" transform="translate(-520.000000, -459.000000)">
            <g id="Group-27" transform="translate(478.000000, 223.000000)">
                <g id="marker" transform="translate(42.893679, 236.200000)">
                    <g id="Layer_1">
                        <path d="M8.4,0 C3.72,0 0,3.72 0,8.4 C0,15.6 8.4,24 8.4,24 C8.4,24 16.8,15.48 16.8,8.4 C16.8,3.72 13.08,0 8.4,0 L8.4,0 Z M8.4,11.4 C6.72,11.4 5.4,10.08 5.4,8.4 C5.4,6.72 6.72,5.4 8.4,5.4 C10.08,5.4 11.4,6.72 11.4,8.4 C11.4,10.08 10.08,11.4 8.4,11.4 L8.4,11.4 Z" id="Shape"></path>
                    </g>
                </g>
            </g>
        </g>
    </g>
</svg>