<svg xmlns="http://www.w3.org/2000/svg" width="17" height="18" viewBox="0 0 17 18">
    <g id="Symbols" stroke="none" stroke-width="1" fill-rule="evenodd">
        <g id="Menu_signed_white" transform="translate(-1142.000000, -30.000000)">
            <g id="Menu">
                <g id="Group-29">
                    <g id="Menu_white_signed" transform="translate(40.000000, 16.000000)">
                        <g id="Group-12" transform="translate(269.000000, 4.000000)">
                            <g id="Group-15" transform="translate(833.000000, 0.000000)">
                                <g id="Notification" transform="translate(0.000000, 10.000000)">
                                    <g id="Layer_1">
                                        <path d="M7.12163461,15.807166 C2.79660023,15.63903 0,14.6789155 0,13.4583333 C0,12.5083333 3.86363636,9.34166667 3.86363636,8.70833333 L3.86363636,4.75 C3.86363636,2.1375 5.95,0 8.5,0 C11.05,0 13.1363636,2.1375 13.1363636,4.75 L13.1363636,8.70833333 C13.1363636,9.34166667 17,12.5083333 17,13.4583333 C17,14.6789155 14.2033998,15.63903 9.87836539,15.807166 C9.98975816,15.9930987 10.0454545,16.1478212 10.0454545,16.4166667 C10.0454545,17.2875 9.35,18 8.5,18 C7.65,18 6.95454545,17.2875 6.95454545,16.4166667 C6.95454545,16.1478212 7.01024184,15.9930987 7.12163461,15.807166 L7.12163461,15.807166 Z" id="Combined-Shape"></path>
                                    </g>
                                </g>
                            </g>
                        </g>
                    </g>
                </g>
            </g>
        </g>
    </g>
</svg>