<?xml version="1.0" encoding="utf-8"?>
<!-- Generator: Adobe Illustrator 20.0.0, SVG Export Plug-In . SVG Version: 6.00 Build 0)  -->
<svg version="1.1" id="Layer_1" xmlns="http://www.w3.org/2000/svg" xmlns:xlink="http://www.w3.org/1999/xlink" x="0px" y="0px"
     viewBox="0 0 17 18" style="enable-background:new 0 0 17 18;" xml:space="preserve">
    <g id="Symbols" stroke="none" stroke-width="1" fill-rule="evenodd">
        <g id="Menu_signed_dark_no_badge" transform="translate(-1142.000000, -23.000000)">
            <g id="Menu" transform="translate(1095.000000, 14.000000)">
                <g id="Group-29">
                    <g id="Menu_white_signed">
                        <g id="Group-12">
                            <g id="Group-15" transform="translate(47.000000, 0.000000)">
                                <g id="notification_blank" transform="translate(0.000000, 9.000000)">
                                    <g id="Layer_1">
                                        <path d="M2.88756469,13.2276509 C4.22346281,13.6098038 6.19399007,13.8333333 8.5,13.8333333 C10.8060099,13.8333333 12.7765372,13.6098038 14.1124353,13.2276509 C14.2082811,13.2002328 14.2991739,13.1724273 14.384897,13.1444897 C14.2249699,12.9712719 14.0398351,12.776531 13.824887,12.5547416 C13.7314767,12.4585012 13.7314767,12.4585012 13.6369519,12.3615733 C13.5945021,12.3180831 13.072342,11.7851628 12.9239034,11.632275 C12.6501247,11.35029 12.4399503,11.1283871 12.2562566,10.9251355 C11.4132254,9.99234618 11.1363636,9.60172295 11.1363636,8.70833333 L11.1363636,4.75 C11.1363636,3.23137584 9.93444655,2 8.5,2 C7.06555345,2 5.86363636,3.23137584 5.86363636,4.75 L5.86363636,8.70833333 C5.86363636,9.60172295 5.58677462,9.99234618 4.74374336,10.9251355 C4.56004972,11.1283871 4.34987531,11.35029 4.07609658,11.632275 C3.92765803,11.7851628 3.40549789,12.3180831 3.36304809,12.3615733 C3.26852334,12.4585012 3.26852334,12.4585012 3.17511299,12.5547416 C2.96016487,12.776531 2.7750301,12.9712719 2.61510295,13.1444897 C2.70082612,13.1724273 2.79171894,13.2002328 2.88756469,13.2276509 Z M13.1363636,8.70833333 C13.1363636,9.34166667 17,12.5083333 17,13.4583333 C17,14.8041667 13.6,15.8333333 8.5,15.8333333 C3.4,15.8333333 0,14.8041667 0,13.4583333 C0,12.5083333 3.86363636,9.34166667 3.86363636,8.70833333 L3.86363636,4.75 C3.86363636,2.1375 5.95,0 8.5,0 C11.05,0 13.1363636,2.1375 13.1363636,4.75 L13.1363636,8.70833333 Z" id="Shape"></path>
                                        <path d="M8.5,15.7041667 L7.18636364,15.7041667 C7.03181818,15.9416667 6.95454545,16.1 6.95454545,16.4166667 C6.95454545,17.2875 7.65,18 8.5,18 C9.35,18 10.0454545,17.2875 10.0454545,16.4166667 C10.0454545,16.1 9.96818182,15.9416667 9.81363636,15.7041667 L8.5,15.7041667 L8.5,15.7041667 Z" id="Shape"></path>
                                    </g>
                                </g>
                            </g>
                        </g>
                    </g>
                </g>
            </g>
        </g>
    </g>
</svg>