<?xml version="1.0" encoding="utf-8"?>
<!-- Generator: Adobe Illustrator 20.0.0, SVG Export Plug-In . SVG Version: 6.00 Build 0)  -->
<svg version="1.1" id="Layer_1" xmlns="http://www.w3.org/2000/svg" xmlns:xlink="http://www.w3.org/1999/xlink" x="0px" y="0px"
     viewBox="0 0 17 17" style="enable-background:new 0 0 17 17;" xml:space="preserve">
    <g id="Symbols" stroke="none" stroke-width="1" fill-rule="evenodd">
        <g id="Menu-M-Dark" transform="translate(-837.000000, -24.000000)">
            <g id="Group-18" transform="translate(179.000000, 14.000000)">
                <g id="Group-15" transform="translate(658.000000, 0.000000)">
                    <g id="appointment_reminders" transform="translate(0.000000, 10.000000)">
                        <g id="Notify-2">
                            <path d="M5.10469411,0.523827059 C4.3355012,1.37257936 3.86363636,2.50757522 3.86363636,3.75 L3.86363636,7.70833333 C3.86363636,8.34166667 0,11.5083333 0,12.4583333 C0,13.6789155 2.79660023,14.63903 7.12163461,14.807166 C7.01024184,14.9930987 6.95454545,15.1478212 6.95454545,15.4166667 C6.95454545,16.2875 7.65,17 8.5,17 C9.35,17 10.0454545,16.2875 10.0454545,15.4166667 C10.0454545,15.1478212 9.98975816,14.9930987 9.87836539,14.807166 C14.2033998,14.63903 17,13.6789155 17,12.4583333 C17,11.9827242 16.0316118,10.951526 15.0644656,9.96077623 C9.93324522,9.52862091 5.8045715,5.5742213 5.10469411,0.523827059 Z" id="Combined-Shape"></path>
                        </g>
                    </g>
                </g>
            </g>
        </g>
    </g>
</svg>