<svg width="36px" height="36px" viewBox="0 0 36 36" version="1.1" xmlns="http://www.w3.org/2000/svg" xmlns:xlink="http://www.w3.org/1999/xlink">
    <defs>
        <circle id="path-1" cx="18" cy="18" r="18"></circle>
    </defs>
    <g id="Design-v.2.1" stroke="none" stroke-width="1" fill="none" fill-rule="evenodd">
        <g id="Home-360-Menu" transform="translate(-16.000000, -88.000000)">
            <g id="Group-29">
                <g id="Group-28" transform="translate(16.000000, 88.000000)">
                    <g id="Person">
                        <mask id="mask-2" fill="white">
                            <use xlink:href="#path-1"></use>
                        </mask>
                        <use id="Mask" fill="#444444" xlink:href="#path-1"></use>
                        <g id="Group-25" mask="url(#mask-2)">
                            <g transform="translate(3.772725, 8.000000)" id="Group-45">
                                <g>
                                    <path d="M14.2272754,14 C18.0932686,14 21.2272754,10.8659932 21.2272754,7 C21.2272754,3.13400675 18.0932686,-3.55271368e-14 14.2272754,-3.55271368e-14 C10.3612821,-3.55271368e-14 7.22727539,3.13400675 7.22727539,7 C7.22727539,10.8659932 10.3612821,14 14.2272754,14 Z M14.3050781,31.9090909 C8.93671875,31.9090909 0.514285714,26.9090909 0.514285714,26.9090909 C0.514285714,20.3547078 6.68571429,15.1112013 14.4,15.1112013 C22.1142857,15.1112013 28.2857143,20.3547078 28.2857143,26.9090909 C28.2857143,26.9090909 18.1938616,31.9090909 14.3050781,31.9090909 Z" id="Combined-Shape" fill="#9E9E9E"></path>
                                </g>
                            </g>
                        </g>
                    </g>
                </g>
            </g>
        </g>
    </g>
</svg>