<svg xmlns="http://www.w3.org/2000/svg" width="22" height="24" viewBox="0 0 22 24">
    <g id="Design-Final" stroke="none" stroke-width="1" fill-rule="evenodd">
        <g id="Profile-Edit" transform="translate(-517.000000, -320.000000)">
            <g id="Group-27" transform="translate(478.000000, 214.000000)">
                <g id="User" transform="translate(39.000000, 106.000000)">
                    <path d="M15.621,17 C14.243,17.738 12.669,18.16 10.998,18.16 C9.328,18.16 7.755,17.74 6.377,17 C3.401,17.782 1.069,19.635 0,23.62 L22,23.62 C20.931,19.634 18.599,17.781 15.621,17 L15.621,17 Z" id="Shape"></path>
                    <path d="M11,16 C15.418,16 19,12.418 19,8 C19,3.582 15.418,0 11,0 C6.582,0 3,3.582 3,8 C3,12.418 6.582,16 11,16 L11,16 Z" id="Shape"></path>
                </g>
            </g>
        </g>
    </g>
</svg>