<?xml version="1.0" encoding="UTF-8"?>
<svg width="22px" height="22px" viewBox="0 0 22 22" version="1.1" xmlns="http://www.w3.org/2000/svg" xmlns:xlink="http://www.w3.org/1999/xlink">
    <!-- Generator: sketchtool 41.2 (35397) - http://www.bohemiancoding.com/sketch -->
    <title>07CF1C24-6BAE-4745-AA7A-EAA81B7EE8AC</title>
    <desc>Created with sketchtool.</desc>
    <defs></defs>
    <g id="Design-Final" stroke="none" stroke-width="1" fill-rule="evenodd">
        <g id="New-Post" transform="translate(-1116.000000, -829.000000)">
            <path d="M1127,851 C1133.07513,851 1138,846.075132 1138,840 C1138,833.924868 1133.07513,829 1127,829 C1120.92487,829 1116,833.924868 1116,840 C1116,846.075132 1120.92487,851 1127,851 Z M1130.00011,834.550368 C1129.29842,833.937842 1128.31189,833.631579 1127.03995,833.631579 C1125.78074,833.631579 1124.78611,833.954632 1124.05837,834.599 C1123.36711,835.210947 1123.00179,836.048684 1122.95605,837.105842 L1122.94737,837.105263 L1122.94737,837.684211 L1125.55263,837.684211 L1125.55668,837.277211 C1125.56826,836.799 1125.70779,836.423842 1125.97468,836.152316 C1126.241,835.879632 1126.59647,835.743579 1127.04053,835.743579 C1127.97611,835.743579 1128.44389,836.248421 1128.44389,837.258105 C1128.44389,837.593316 1128.35474,837.911737 1128.17411,838.213368 C1127.99463,838.515 1127.63279,838.905789 1127.09032,839.386895 C1126.54726,839.867421 1126.17442,840.355474 1125.97005,840.850474 C1125.76568,841.346053 1125.66437,842.058158 1125.66437,842.894158 L1127.96742,842.894158 L1128.00389,842.302474 C1128.06932,841.717158 1128.33042,841.206526 1128.78721,840.770579 L1129.51611,840.081053 C1130.08521,839.532211 1130.48411,839.031421 1130.71221,838.581 C1130.94032,838.130579 1131.05379,837.651211 1131.05379,837.142895 C1131.05263,836.026684 1130.70237,835.162316 1130.00011,834.550368 Z M1126.86047,844.135421 C1126.43842,844.135421 1126.08989,844.272632 1125.81953,844.547632 C1125.548,844.821474 1125.41311,845.17 1125.41311,845.592632 C1125.41311,846.009474 1125.54568,846.352789 1125.81142,846.623737 C1126.07658,846.894684 1126.42626,847.030158 1126.86105,847.030158 C1127.29584,847.030158 1127.64495,846.894684 1127.91068,846.623737 C1128.17584,846.352211 1128.30842,846.008895 1128.30842,845.592632 C1128.30842,845.170579 1128.17295,844.821474 1127.902,844.547632 C1127.63395,844.276684 1127.27732,844.135421 1126.86047,844.135421 Z" id="Combined-Shape"></path>
        </g>
    </g>
</svg>