<svg xmlns="http://www.w3.org/2000/svg" width="18" height="18" viewBox="0 0 18 18" xmlns:xlink="http://www.w3.org/1999/xlink">
    <defs>
        <polygon id="path-1" points="17.707 8.85355 17.707 0.0001 0 0.0001 0 8.85355 0 17.707 17.707 17.707 17.707 8.85355"></polygon>
    </defs>
    <g id="Symbols" stroke="none" stroke-width="1" fill-rule="evenodd">
        <g id="Menu_signed_white" transform="translate(-1095.000000, -30.000000)">
            <g id="Menu">
                <g id="Group-29">
                    <g id="Menu_white_signed" transform="translate(40.000000, 16.000000)">
                        <g id="Group-12" transform="translate(269.000000, 4.000000)">
                            <g id="Search" transform="translate(795.000000, 19.000000) scale(-1, 1) translate(-795.000000, -19.000000) translate(786.000000, 10.000000)">
                                <g id="Page-1" transform="translate(9.000000, 9.000000) scale(-1, 1) translate(-9.000000, -9.000000) ">
                                    <mask id="mask-2" fill="white">
                                        <use xlink:href="#path-1"></use>
                                    </mask>
                                    <g id="Clip-2"></g>
                                    <path d="M2,7 C2,4.239 4.239,2 7,2 C9.761,2 12,4.239 12,7 C12,9.761 9.761,12 7,12 C4.239,12 2,9.761 2,7 L2,7 Z M17.707,16.293 L12.601,11.186 C13.475,10.018 14,8.572 14,7 C14,3.134 10.866,0 7,0 C3.134,0 0,3.134 0,7 C0,10.866 3.134,14 7,14 C8.572,14 10.018,13.475 11.186,12.601 L16.293,17.707 L17.707,16.293 Z" id="Fill-1" mask="url(#mask-2)"></path>
                                </g>
                            </g>
                        </g>
                    </g>
                </g>
            </g>
        </g>
    </g>
</svg>