<svg xmlns="http://www.w3.org/2000/svg" width="22" height="22" viewBox="0 0 23 23">
    <g id="Design-Final" stroke="none" stroke-width="1" fill-rule="evenodd">
        <g id="Blog_new(edit)" transform="translate(-518.000000, -321.000000)" fill="#9E9E9E">
            <g id="Group-20" transform="translate(478.000000, 214.000000)">
                <g id="comments" transform="translate(40.000000, 107.000000)">
                    <g id="Layer_1">
                        <path d="M19.8,0 L2.2,0 C0.99,0 0,0.99 0,2.2 L0,15.4 C0,16.61 0.99,17.6 2.2,17.6 L17.6,17.6 L22,22 L22,2.2 C22,0.99 21.01,0 19.8,0 L19.8,0 Z M17.6,5.5 L4.4,5.5 L4.4,3.3 L17.6,3.3 L17.6,5.5 L17.6,5.5 Z M17.6,9.9 L4.4,9.9 L4.4,7.7 L17.6,7.7 L17.6,9.9 L17.6,9.9 Z M14.3,14.3 L4.4,14.3 L4.4,12.1 L14.3,12.1 L14.3,14.3 L14.3,14.3 Z" id="Shape"></path>
                    </g>
                </g>
            </g>
        </g>
    </g>
</svg>