<?xml version="1.0" encoding="UTF-8"?>
<svg width="18px" height="18px" viewBox="0 0 18 18" version="1.1" xmlns="http://www.w3.org/2000/svg" xmlns:xlink="http://www.w3.org/1999/xlink">
    <!-- Generator: sketchtool 41.2 (35397) - http://www.bohemiancoding.com/sketch -->
    <title>C1AB821B-EA00-452C-955E-F880D3D5B1DF</title>
    <desc>Created with sketchtool.</desc>
    <defs>
        <path d="M15.8310588,7.18651429 C15.3854118,5.09142857 14.7830588,2.01828571 14.3327059,1.58125714 L14.1176471,1.37142857 L11,0 C11,0 10.3529412,2.28617143 8,2.28617143 C5.64705882,2.28617143 5,0 5,0 L1.88235294,1.37142857 L1.66682353,1.5808 C1.18682353,2.04708571 0.139764706,7.32457143 0.169411765,7.18651429 L3.07623529,7.65737143 C3.15482353,7.4288 4,6 4,6 L4,15 L12,15 L12,6 C12.0541176,6.18194286 12.8470588,7.43337143 12.9261176,7.66514286 C12.9256471,7.6624 15.8310588,7.18651429 15.8310588,7.18651429 Z" id="path-1"></path>
        <mask id="mask-2" maskContentUnits="userSpaceOnUse" maskUnits="objectBoundingBox" x="-1" y="-1" width="17.6622637" height="17">
            <rect x="-0.831204842" y="-1" width="17.6622637" height="17" fill="white"></rect>
            <use xlink:href="#path-1" fill="black"></use>
        </mask>
    </defs>
    <g id="Symbols" stroke="none" stroke-width="1" fill="none" fill-rule="evenodd">
        <g id="TTD-Team-Stroke-" transform="translate(1.000000, 2.000000)">
            <g id="TTD-for-dark">
                <g id="Слой_1">
                    <g id="Shape">
                        <use fill="#0BC36F" fill-rule="evenodd" xlink:href="#path-1"></use>
                        <use stroke="#FFFFFF" mask="url(#mask-2)" stroke-width="2" xlink:href="#path-1"></use>
                    </g>
                </g>
            </g>
        </g>
    </g>
</svg>