<svg xmlns="http://www.w3.org/2000/svg" width="18" height="18" viewBox="0 0 18 18">
    <g id="Design-v.2.1" stroke="none" stroke-width="1" fill-rule="evenodd">
        <g id="Home-01" transform="translate(-1052.000000, -3393.000000)" stroke="#FFFFFF">
            <g id="Group-25" transform="translate(0.000000, 3292.000000)">
                <g id="Group-6-Copy-2" transform="translate(970.000000, 28.000000)">
                    <g id="Forums" transform="translate(19.000000, 16.000000)">
                        <g id="Group-21" transform="translate(0.005391, 2.575163)">
                            <g id="Group-48">
                                <g id="Group-16" transform="translate(0.994609, 51.424837)">
                                    <g id="Group-20">
                                        <g id="Group-17">
                                            <g id="TTD-Team-Stroke-" transform="translate(63.334232, 3.980392)">
                                                <g id="TTD-Team">
                                                    <g id="Слой_1">
                                                        <g id="Group" fill="#444444">
                                                            <path d="M15.8310588,6.18605714 C15.7825882,5.95977143 15.7327059,5.74948571 15.6814118,5.54925714 L12.7468235,6.13485714 C12.7976471,6.29531429 12.8602353,6.47131429 12.9265882,6.66514286 C12.9261176,6.66285714 12.9251765,6.65965714 12.9242353,6.65737143 C13.0164706,6.92845714 13.112,7.22605714 13.1764706,7.54285714 L13.5501176,7.48205714 L16,7.08571429 C15.9468235,6.76342857 15.8903529,6.46537143 15.8310588,6.18605714 L15.8310588,6.18605714 Z" id="Shape"></path>
                                                            <path d="M0.325176471,5.52594286 C0.272,5.7312 0.221176471,5.95428571 0.171294118,6.18605714 L0.169411765,6.18605714 C0.109647059,6.46537143 0.0531764706,6.76342857 -8.8817842e-16,7.08571429 L2.44988235,7.48205714 L2.82352941,7.54285714 C2.88752941,7.22605714 2.98305882,6.92845714 3.07670588,6.65691429 L3.07670588,6.65691429 C3.15152941,6.43885714 3.224,6.23908571 3.27717647,6.06491429 L0.325176471,5.52594286 L0.325176471,5.52594286 Z" id="Shape"></path>
                                                            <path d="M5.64282353,0 C5.64282353,0 6.58823529,0.457142857 8,0.457142857 C9.41176471,0.457142857 10.3482353,0 10.3482353,0 L10.3482353,4.57142857 L5.64235294,4.57142857 L5.64235294,0 L5.64282353,0 Z" id="Shape"></path>
                                                        </g>
                                                        <path d="M15.8310588,7.18651429 C15.3854118,5.09142857 14.7830588,2.01828571 14.3327059,1.58125714 L14.1176471,1.37142857 L10.3529412,0 C10.1750588,0.276571429 10.3529412,2.28617143 8,2.28617143 C5.64705882,2.28617143 5.82494118,0.276571429 5.64705882,0 L1.88235294,1.37142857 L1.66682353,1.5808 C1.18682353,2.04708571 0.139764706,7.32457143 0.169411765,7.18651429 L3.07623529,7.65737143 C3.15482353,7.4288 3.23152941,7.07565714 3.28517647,6.89554286 L3.29411765,16 L12.7058824,16 L12.7148235,6.89554286 C12.7689412,7.07748571 12.8470588,7.43337143 12.9261176,7.66514286 C12.9256471,7.6624 15.8310588,7.18651429 15.8310588,7.18651429 Z" id="Shape"></path>
                                                    </g>
                                                </g>
                                            </g>
                                        </g>
                                    </g>
                                </g>
                            </g>
                        </g>
                    </g>
                </g>
            </g>
        </g>
    </g>
</svg>