<svg xmlns="http://www.w3.org/2000/svg" width="26" height="21" viewBox="0 0 26 21">
    <g id="Symbols" stroke="none" stroke-width="1" fill-rule="evenodd">
        <g id="Footer" transform="translate(-223.000000, -113.000000)">
            <g id="Group-30">
                <g id="Group-33">
                    <g id="Group-27" transform="translate(120.000000, 39.000000)">
                        <g id="twitter_filled" transform="translate(103.000000, 74.000000)">
                            <g id="Слой_1">
                                <path d="M25.5305,2.719 C24.6075,3.128 23.6175,3.4035 22.5765,3.529 C23.639,2.8925 24.455,1.884 24.838,0.685 C23.845,1.2735 22.743,1.7015 21.5725,1.9315 C20.6355,0.9315 19.299,0.308 17.8205,0.308 C14.9805,0.308 12.6785,2.61 12.6785,5.449 C12.6785,5.8515 12.7245,6.2435 12.813,6.6205 C8.54,6.406 4.751,4.359 2.2145,1.2485 C1.772,2.0095 1.519,2.893 1.519,3.8345 C1.519,5.618 2.425,7.191 3.806,8.1145 C2.962,8.0875 2.1705,7.856 1.4775,7.4705 L1.4775,7.536 C1.4775,10.028 3.2495,12.103 5.6,12.578 C5.17,12.696 4.7155,12.758 4.2465,12.758 C3.9145,12.758 3.592,12.726 3.2775,12.665 C3.934,14.7055 5.8315,16.195 8.081,16.2365 C6.3225,17.615 4.1055,18.436 1.696,18.436 C1.2795,18.436 0.8715,18.412 0.47,18.364 C2.744,19.8235 5.448,20.6735 8.351,20.6735 C17.8085,20.6735 22.981,12.8395 22.981,6.0475 C22.981,5.8235 22.9755,5.6005 22.966,5.3815 C23.97,4.6565 24.842,3.75 25.5305,2.719 L25.5305,2.719 Z" id="Shape"></path>
                            </g>
                        </g>
                    </g>
                </g>
            </g>
        </g>
    </g>
</svg>