<svg xmlns="http://www.w3.org/2000/svg" width="23" height="24" viewBox="0 0 23 24">
    <g id="Design-v.2.1" stroke="none" stroke-width="1" fill-rule="evenodd">
        <g id="Profile-Edit" transform="translate(-518.000000, -329.000000)">
            <g id="Group-27" transform="translate(478.000000, 223.000000)">
                <g id="user" transform="translate(40.293679, 106.000000)">
                    <g id="Layer_1">
                        <path d="M15.621,17.38 C14.243,18.118 12.669,18.54 10.998,18.54 C9.328,18.54 7.755,18.12 6.377,17.38 C3.401,18.162 1.069,20.015 0,24 L22,24 C20.931,20.014 18.599,18.161 15.621,17.38 L15.621,17.38 Z" id="Shape"></path>
                        <path d="M11,16 C15.418,16 19,12.418 19,8 C19,3.582 15.418,0 11,0 C6.582,0 3,3.582 3,8 C3,12.418 6.582,16 11,16 L11,16 Z" id="Shape"></path>
                    </g>
                </g>
            </g>
        </g>
    </g>
</svg>