<svg xmlns="http://www.w3.org/2000/svg" width="18" height="9" viewBox="0 0 18 9">
    <g id="Symbols" stroke-width="1" fill-rule="evenodd">
        <g id="Post-stats-filled-S" transform="translate(-43.000000, -5.000000)">
            <g id="Group-15" transform="translate(0.000000, 3.000000)">
                <g id="Group-4-Copy" transform="translate(44.000000, 0.000000)">
                    <g id="view" transform="translate(0.000000, 3.000000)">
                        <g id="view_gray">
                            <g id="Group">
                                <path d="M15.2904694,4.21052632 L15.2904694,4.21052632 C15.2623248,4.17001679 15.2301228,4.13149374 15.193862,4.09551444 L13.6165333,2.53043008 C10.4461333,-0.616132331 5.288,-0.616132331 2.1176,2.53043008 L0.601154881,4.03528382 C0.547088762,4.08893667 0.501746311,4.14793882 0.465131758,4.21052632" id="Combined-Shape" fill="none" stroke-width="2"></path>
                                <path d="M7.88586667,1.41056304 C6.08610085,1.41056304 4.62178246,2.87529232 4.62178246,4.67556314 C4.62178246,6.47583397 6.08610085,7.94056325 7.88586667,7.94056325 C9.68563248,7.94056325 11.1499509,6.47583397 11.1499509,4.67556314 C11.1499509,2.87529232 9.68588357,1.41056304 7.88586667,1.41056304 L7.88586667,1.41056304 Z" id="Shape-Copy" stroke="none"></path>
                            </g>
                        </g>
                    </g>
                </g>
            </g>
        </g>
    </g>
</svg>