<svg xmlns="http://www.w3.org/2000/svg" width="26" height="26" viewBox="0 0 26 26">
    <g id="Symbols" stroke="none" stroke-width="1" fill-rule="evenodd">
        <g id="Footer" transform="translate(-170.000000, -110.000000)">
            <g id="Group-30">
                <g id="Group-33">
                    <g id="Group-27" transform="translate(120.000000, 39.000000)">
                        <g id="vkontakte_filled" transform="translate(50.000000, 71.000000)">
                            <g id="Слой_1">
                                <path d="M20.58836,0 L5.41164,0 C2.42736,0 0,2.42684 0,5.41008 L0,20.58992 C0,23.57316 2.42736,26 5.41164,26 L20.58784,26 C23.57212,26 26,23.57316 26,20.58992 L26,5.41008 C26,2.42684 23.57212,0 20.58836,0 L20.58836,0 Z M21.04232,18.15892 L18.68048,18.19116 C18.68048,18.19116 18.1714,18.28892 17.50424,17.83964 C16.62076,17.24684 15.78876,15.70556 15.13876,15.90472 C14.59328,16.07164 14.47784,16.70032 14.47784,17.34564 C14.47784,17.57652 14.31248,17.68052 13.8736,17.68052 L12.81644,17.68052 C11.38956,17.68052 9.97412,17.61552 8.4292,15.96296 C6.24416,13.62608 4.21044,9.26588 4.21044,9.26588 C4.21044,9.26588 4.09708,9.02876 4.22032,8.88472 C4.3602,8.723 4.7398,8.74328 4.7398,8.74328 L7.26648,8.74224 C7.26648,8.74224 7.50412,8.78852 7.6752,8.91124 C7.81612,9.01212 7.89464,9.20504 7.89464,9.20504 C7.89464,9.20504 8.30336,10.21852 8.84416,11.13372 C9.90028,12.91992 10.39116,13.31148 10.74944,13.1196 C11.27256,12.84088 11.11552,10.59552 11.11552,10.59552 C11.11552,10.59552 11.1254,9.78016 10.8524,9.4172 C10.6418,9.13588 10.244,9.05372 10.06824,9.03084 C9.92576,9.01212 10.15872,8.6892 10.46136,8.5436 C10.91636,8.32572 11.71924,8.31376 12.66876,8.32312 C13.40768,8.3304 13.62088,8.37564 13.90948,8.44376 C14.781,8.64968 14.4846,9.44528 14.4846,11.35316 C14.4846,11.96416 14.37176,12.82372 14.82208,13.10868 C15.01604,13.2314 15.48976,13.12688 16.67328,11.15816 C17.23592,10.22476 17.65608,9.12756 17.65608,9.12756 C17.65608,9.12756 17.74864,8.957 17.89164,8.87328 C18.03828,8.78748 18.03308,8.78904 18.23432,8.78904 C18.43608,8.78904 20.45212,8.77292 20.89412,8.77292 C21.33612,8.77292 21.75056,8.76772 21.82232,9.03292 C21.92476,9.41408 21.52384,10.26896 20.43704,11.687 C18.6524,14.01452 18.45428,13.79716 19.93524,15.14292 C21.35016,16.42888 21.64344,17.05444 21.69128,17.13244 C22.27836,18.08404 21.04232,18.15892 21.04232,18.15892 L21.04232,18.15892 Z" id="Shape"></path>
                            </g>
                        </g>
                    </g>
                </g>
            </g>
        </g>
    </g>
</svg>