<?xml version="1.0" encoding="UTF-8"?><!DOCTYPE svg PUBLIC "-//W3C//DTD SVG 1.1//EN" "http://www.w3.org/Graphics/SVG/1.1/DTD/svg11.dtd"><svg xmlns="http://www.w3.org/2000/svg" xmlns:xlink="http://www.w3.org/1999/xlink"><defs><path id="SVGID_1_" d="M332-166.9c-8 0-16-2-16-6.6v5.9c0 4.6 4.6 9.4 16 9.4s16-4.8 16-9.4v-5.9c0 4.6-8 6.6-16 6.6zm0-.1c-7.7 0-13.9-2.7-13.9-5.6 0-2.9 6.1-5.6 13.9-5.6s13.9 2.7 13.9 5.6c0 2.9-6.2 5.6-13.9 5.6zm0 2c8.8 0 16-3.2 16-7.6 0-4.4-7.2-7.6-16-7.6s-16 3.2-16 7.6c0 4.5 7.2 7.6 16 7.6z"/><path id="SVGID_3_" d="M-689-925.1H751v1909H-689z"/><circle id="a" cx="18" cy="18" r="18"/><path id="a" d="M17.707 8.854V0H0v17.707h17.707V8.854z"/></defs><symbol id="basketball" viewBox="0 0 59 59"><path d="M29 0C13 0 0 13 0 29s13 29 29 29 29-13 29-29S45 0 29 0zm23.9 27h-11c.4-5 2.3-9.7 5.4-13.6 3.1 3.7 5.2 8.4 5.6 13.6zm-22.4 0V5.1c5.6.3 10.7 2.6 14.6 6.2-3.7 4.4-5.9 9.9-6.3 15.8h-8.3zm-3 0h-7.9c-.4-5.9-2.7-11.5-6.5-16C17 7.6 22 5.4 27.5 5.1V27zm0 3v22.9C22 52.6 17 50.4 13.1 47c4-4.7 6.3-10.7 6.5-17h7.9zm3 0h8.3c.2 6.2 2.5 12.1 6.3 16.8-3.9 3.6-9 5.8-14.6 6.2V30zM11 13.1c3.2 3.9 5.2 8.7 5.6 13.9H5.1c.4-5.3 2.6-10.1 5.9-13.9zM5 30h11.7c-.2 5.5-2.2 10.7-5.7 14.9-3.5-4-5.7-9.2-6-14.9zm42.2 14.6C44 40.5 42 35.4 41.8 30H53c-.3 5.6-2.4 10.6-5.8 14.6z"/></symbol><symbol id="check" viewBox="0 0 25 24"><g fill-rule="evenodd"><path d="M12.172 0c-6.627 0-12 5.373-12 12s5.373 12 12 12 12-5.373 12-12-5.373-12-12-12z"/><path fill="#FFF" d="M10.172 17.414l-4.707-4.707 1.414-1.414 3.293 3.293 7.293-7.293 1.414 1.414z"/></g></symbol><symbol id="close" viewBox="0 0 12 11"><g stroke-width="2" fill="none" fill-rule="evenodd" stroke-linecap="square"><path d="M1 1l12 12M13 1L1 13"/></g></symbol><symbol id="comment" viewBox="0 0 12 11"><path d="M10.91 0H1.09C.49 0 0 .492 0 1.094v6.562C0 8.258.49 8.75 1.09 8.75h1.365c.163.902 0 1.695-.819 2.187 1.119 0 2.4-.546 3-2.187h6.273c.6 0 1.091-.492 1.091-1.094V1.094C12 .492 11.51 0 10.91 0z" fill-rule="evenodd"/></symbol><symbol id="comments" viewBox="0 0 12 11"><path d="M10.91 0H1.09C.49 0 0 .492 0 1.094v6.562C0 8.258.49 8.75 1.09 8.75h1.365c.163.902 0 1.695-.819 2.187 1.119 0 2.4-.546 3-2.187h6.273c.6 0 1.091-.492 1.091-1.094V1.094C12 .492 11.51 0 10.91 0z" fill-rule="evenodd"/></symbol><symbol id="down" viewBox="0 0 19 23"><path d="M3.724.996H13.83c2.64 0 4.788 2.166 4.788 4.83v5.045c0 1.04-.302 1.993-.897 2.834l-5.961 8.269c-.37.628-.999 1.026-1.654 1.026-.883 0-2.127-.766-2.127-2.469 0-.487.132-.814.26-1.131a8.52 8.52 0 0 0 .092-.237c.2-.564 1.254-2.965 1.806-4.214-1.636-.002-5.264-.012-6.643-.053-1.517 0-2.431-1.037-2.431-2.039 0-.344.057-.814.105-1.144C.699 11.431 0 10.83 0 9.743c0-.753.359-1.312.704-1.677A2.12 2.12 0 0 1 0 6.47c0-1.077.735-1.73 1.262-2.061a3.192 3.192 0 0 1-.198-1.106c0-.963 1.012-2.307 2.66-2.307z" fill-rule="evenodd"/></symbol><symbol id="dropdown" viewBox="0 0 14 9"><g stroke-width="2" fill="none" fill-rule="evenodd" stroke-linecap="square"><path d="M1.462 1.5l5.567 6.032M12.538 1.5L6.971 7.532"/></g></symbol><symbol id="energy" viewBox="0 0 10 12"><path d="M9.8 4.9H6.1L7.2.1 6.6 0 0 6.8l.2.3h3.7L2 11.8l.5.2L10 5.2z"/></symbol><symbol id="facebook" viewBox="0 0 26 26"><path d="M20.8 0H5.2A5.206 5.206 0 0 0 0 5.2v15.6C0 23.667 2.333 26 5.2 26h15.6c2.867 0 5.2-2.333 5.2-5.2V5.2C26 2.333 23.667 0 20.8 0zm-.52 8.84h-1.56c-1.115 0-1.56.262-1.56 1.04v1.56h3.12l-.52 3.12h-2.6v10.4h-3.64v-10.4h-1.56v-3.12h1.56V9.88c0-2.432.822-4.16 3.64-4.16 1.509 0 3.12.52 3.12.52v2.6z" fill-rule="evenodd"/></symbol><symbol id="football" viewBox="0 0 58 57"><path d="M29.129 0C13.415 0 .629 12.786.629 28.5S13.415 57 29.129 57s28.5-12.786 28.5-28.5S44.843 0 29.129 0zm22.589 41.6l-9.998 2.302-3.714-4.146 4.14-12.79 6.383-3.429 6.592 7.587A25.902 25.902 0 0 1 51.718 41.6zm-35.115 2.308l-10.07-2.32a25.924 25.924 0 0 1-3.39-10.391l6.67-7.679 6.23 3.045 4.277 13.195-3.717 4.15zM48.58 11.083L47.678 21.3l-5.998 3.222-11.334-8.26V8.51l9.241-3.943a26.234 26.234 0 0 1 8.993 6.516zm-29.878-6.53l9.27 3.957v7.753l-11.075 8.074-6.259-3.06-.907-10.257a26.255 26.255 0 0 1 8.97-6.467zm4.976 49.496l-5.19-8.684 3.702-4.135h13.945l3.702 4.131-5.174 8.671a26.308 26.308 0 0 1-5.534.593c-1.87 0-3.69-.202-5.45-.576z" fill-rule="evenodd"/></symbol><symbol id="gender" viewBox="0 0 27 23"><path d="M14 8.5c.8.7 1.3 1.8 1.3 2.9 0 .6-.1 1.1-.4 1.7.4.2.9.3 1.4.3.2 0 .5 0 .7-.1.2-.6.3-1.2.3-1.9 0-1.5-.6-2.9-1.5-4-.7.2-1.3.5-1.8 1.1zM11.3 15.4c-2.2 0-4-1.8-4-4 0-1.7 1.1-3.1 2.5-3.7.4-.9.9-1.6 1.6-2.3h-.1c-3.3 0-6 2.7-6 6 0 1.3.4 2.5 1.1 3.5l-2.3 2.3L2 15 .6 16.4l2.1 2.1-2.1 2.1L2 22.1 4.1 20l2.1 2.1 1.4-1.4-2.1-2.1 2.3-2.3c1 .7 2.2 1.1 3.5 1.1.9 0 1.7-.2 2.4-.5-.9-.4-1.7-.9-2.4-1.5.1 0 0 0 0 0z"/><path d="M19.3.4v2h3.6l-3.1 3.1c-1-.7-2.2-1.1-3.5-1.1-3.3 0-6 2.7-6 6s2.7 6 6 6 6-2.7 6-6c0-1.3-.4-2.5-1.1-3.5l3.1-3.1v3.6h2v-7h-7zm-3 14c-2.2 0-4-1.8-4-4s1.8-4 4-4 4 1.8 4 4-1.8 4-4 4z"/></symbol><symbol id="hamburger" viewBox="0 0 23 16"><path d="M0 7h23v2H0zM0 0h23v2H0zM0 14h23v2H0z"/></symbol><symbol id="hockey" viewBox="0 0 57 58"><style>.st0{clip-path:url(#SVGID_2_)}.st1{clip-path:url(#SVGID_4_);fill:#3a3a3a}</style><g id="hockey" transform="translate(30 2)"><g id="Layer_1_1_"><path id="Shape" d="M26.2-2h-4.6"/></g></g><clipPath id="SVGID_2_"><use xlink:href="#SVGID_1_" overflow="visible"/></clipPath><g class="st0"><clipPath id="SVGID_4_"><use xlink:href="#SVGID_3_" overflow="visible"/></clipPath><path class="st1" d="M311-185.1h42v32h-42z"/></g><path d="M32 18.1C31.4 14 24.4 11 16 11S.6 14 0 18.1v5.5C0 28.2 4.6 33 16 33s16-4.8 16-9.4v-5.5zM16 13c7.7 0 13.9 2.7 13.9 5.6s-6.1 5.6-13.9 5.6-13.9-2.8-13.9-5.6S8.3 13 16 13z"/><path d="M51.5 0L42 32.7c-1.5 5.3-6.4 9-11.9 9h-20c-4.2 0-7.7 3.5-7.7 7.7S5.9 57 10.1 57h17.2c7.5 0 14.1-4.8 16.1-12.1l.9-3.3L56.2 0h-4.7zM29 53H13v-7h16v7z"/></symbol><symbol id="img-upload" viewBox="0 0 18 16"><path d="M16.2 2h-2.4l-2.1-2H6.3L4.2 2H1.8C.8 2 0 2.8 0 3.8v10.5c0 1 .8 1.8 1.8 1.8h14.4c1 0 1.8-.8 1.8-1.8V3.8c0-1-.8-1.8-1.8-1.8zM9 13.1c-2.5 0-4.5-1.9-4.5-4.4s2-4.4 4.5-4.4 4.5 1.9 4.5 4.4-2 4.4-4.5 4.4z"/><ellipse cx="9" cy="8.8" rx="3.2" ry="3.1"/></symbol><symbol id="live" viewBox="0 0 20 10"><title>1B412880-A868-4671-82A0-73E269592127</title><g fill="none" fill-rule="evenodd"><path fill="#0BC36F" d="M0 0h20v10H0z"/><path d="M3.784 7.002h2.338V8h-3.59V1.602h1.252v5.4zM8.055 8H6.812V1.602h1.243V8zm2.966-1.635l.049.246h.026l.049-.233 1.067-4.776h1.314L11.738 8h-1.301L8.648 1.602h1.314l1.06 4.763zm6.434-1.173h-2.149v1.81h2.527V8h-3.78V1.602h3.771v1.002h-2.518v1.59h2.15v.998z" fill="#000"/></g></symbol><symbol id="lock" viewBox="0 0 19 24"><path d="M15.3 11V6c0-3.3-2.7-6-6-6s-6 2.7-6 6v5h-3v13h18V11h-3zm-10-5c0-2.2 1.8-4 4-4s4 1.8 4 4v5h-8V6z"/></symbol><symbol id="marker" viewBox="0 0 18 25"><path d="M9.294.2c-4.68 0-8.4 3.72-8.4 8.4 0 7.2 8.4 15.6 8.4 15.6s8.4-8.52 8.4-15.6c0-4.68-3.72-8.4-8.4-8.4zm0 11.4c-1.68 0-3-1.32-3-3s1.32-3 3-3 3 1.32 3 3-1.32 3-3 3z" fill-rule="evenodd"/></symbol><symbol id="more" viewBox="0 0 23 5"><circle cx="2.5" cy="2.5" r="2.5"/><circle cx="11.5" cy="2.5" r="2.5"/><circle cx="20.5" cy="2.5" r="2.5"/></symbol><symbol id="note" viewBox="0 0 17 18"><path d="M7.122 15.807C2.797 15.64 0 14.68 0 13.458c0-.95 3.864-4.116 3.864-4.75V4.75C3.864 2.138 5.95 0 8.5 0c2.55 0 4.636 2.138 4.636 4.75v3.958c0 .634 3.864 3.8 3.864 4.75 0 1.22-2.797 2.181-7.122 2.35.112.185.167.34.167.609 0 .87-.695 1.583-1.545 1.583s-1.545-.712-1.545-1.583c0-.27.055-.424.167-.61z" fill-rule="evenodd"/></symbol><symbol id="person" viewBox="0 0 36 36"><g fill="none" fill-rule="evenodd"><mask id="b" fill="#fff"><use xlink:href="#a"/></mask><use fill="#444" xlink:href="#a"/><path d="M14.227 14a7 7 0 1 0 0-14 7 7 0 0 0 0 14zm.078 17.91c-5.368 0-13.79-5-13.79-5 0-6.555 6.17-11.799 13.885-11.799 7.714 0 13.886 5.244 13.886 11.798 0 0-10.092 5-13.98 5z" fill="#9E9E9E" transform="translate(3.773 8)" mask="url(#b)"/></g></symbol><symbol id="plus-small" viewBox="0 0 20 20"><path d="M9.5 0C4.3 0 0 4.3 0 9.5S4.3 19 9.5 19 19 14.7 19 9.5 14.7 0 9.5 0zm0 18C4.8 18 1 14.2 1 9.5S4.8 1 9.5 1 18 4.8 18 9.5 14.2 18 9.5 18z"/><path d="M10 5H9v4H5v1h4v4h1v-4h4V9h-4z"/></symbol><symbol id="read-message" viewBox="0 0 23 23"><g fill-rule="evenodd"><path d="M11.294 3.13l8.8 5.28V20.4h-17.6V8.41l8.8-5.28zm0-2.53l-9.9 5.94c-.66.44-1.1 1.1-1.1 1.87V20.4c0 1.21.99 2.2 2.2 2.2h17.6c1.21 0 2.2-.99 2.2-2.2V8.41c0-.77-.44-1.54-1.1-1.87L11.294.6z"/><path d="M11.294 14.9l-8.8-6.6-2.2.11V20.4c0 1.21.99 2.2 2.2 2.2h17.6c1.21 0 2.2-.99 2.2-2.2V8.41l-2.2-.11-8.8 6.6z"/></g></symbol><symbol id="search" viewBox="0 0 18 18"><g fill-rule="evenodd"><mask id="b" fill="#fff"><use xlink:href="#a"/></mask><path d="M2 7a5 5 0 1 1 10.001.001A5 5 0 0 1 2 7zm15.707 9.293l-5.106-5.107A6.962 6.962 0 0 0 14 7a7 7 0 1 0-7 7 6.962 6.962 0 0 0 4.186-1.399l5.107 5.106 1.414-1.414z" mask="url(#b)"/></g></symbol><symbol id="ttd-team" viewBox="0 0 18 18"><g stroke="#FFF" fill-rule="evenodd"><g fill="#444"><path d="M17.165 7.166a16.365 16.365 0 0 0-.15-.636l-2.934.585c.05.16.113.337.18.53a7.205 7.205 0 0 1 .25.878l.373-.06 2.45-.397c-.053-.322-.11-.62-.169-.9zM1.66 6.506c-.054.206-.105.429-.154.66h-.002c-.06.28-.117.578-.17.9l2.45.396.374.061c.064-.317.16-.614.253-.886.075-.218.147-.418.2-.592L1.66 6.506zM6.977.98s.945.458 2.357.458c1.412 0 2.348-.458 2.348-.458v4.572H6.977V.98z"/></g><path d="M17.165 8.167c-.445-2.095-1.048-5.168-1.498-5.605l-.215-.21L11.687.98c-.178.277 0 2.287-2.353 2.287S7.16 1.257 6.981.98L3.217 2.352 3 2.562c-.48.465-1.527 5.743-1.497 5.605l2.906.47c.08-.228.156-.581.21-.761l.008 9.104h9.412l.01-9.104c.053.182.131.538.21.77 0-.003 2.905-.48 2.905-.48z"/></g></symbol><symbol id="twitter" viewBox="0 0 26 21"><path d="M25.53 2.719c-.922.409-1.913.685-2.954.81A5.155 5.155 0 0 0 24.838.685a10.3 10.3 0 0 1-3.265 1.246 5.142 5.142 0 0 0-8.76 4.689A14.601 14.601 0 0 1 2.214 1.248a5.128 5.128 0 0 0-.695 2.587c0 1.783.906 3.356 2.287 4.28a5.114 5.114 0 0 1-2.329-.644v.065A5.147 5.147 0 0 0 5.6 12.578a5.111 5.111 0 0 1-2.322.087 5.154 5.154 0 0 0 4.803 3.572 10.313 10.313 0 0 1-6.385 2.199c-.416 0-.824-.024-1.226-.072a14.543 14.543 0 0 0 7.881 2.31c9.457 0 14.63-7.835 14.63-14.627 0-.223-.006-.446-.015-.665a10.447 10.447 0 0 0 2.564-2.663z" fill-rule="evenodd"/></symbol><symbol id="up" viewBox="0 0 19 23"><path d="M14.895 22.004H4.788c-2.64 0-4.788-2.166-4.788-4.83V12.13c0-1.04.302-1.993.897-2.834l5.961-8.269C7.228.398 7.857 0 8.512 0c.883 0 2.127.766 2.127 2.469 0 .487-.131.814-.26 1.131a8.52 8.52 0 0 0-.092.237c-.2.564-1.254 2.965-1.806 4.214 1.636.002 5.264.012 6.643.053 1.517 0 2.431 1.037 2.431 2.039 0 .344-.057.814-.105 1.144.47.282 1.169.884 1.169 1.97 0 .753-.359 1.312-.704 1.677.351.326.704.84.704 1.596 0 1.077-.735 1.73-1.262 2.061.104.28.198.658.198 1.106 0 .963-1.012 2.307-2.66 2.307z" fill-rule="evenodd"/></symbol><symbol id="user" viewBox="0 0 23 24"><g fill-rule="evenodd"><path d="M15.915 17.38a9.766 9.766 0 0 1-4.623 1.16c-1.67 0-3.243-.42-4.621-1.16-2.976.782-5.308 2.635-6.377 6.62h22c-1.07-3.986-3.401-5.839-6.38-6.62zM11.294 16a8 8 0 1 0-.001-16 8 8 0 0 0 0 16z"/></g></symbol><symbol id="video-upload" viewBox="0 0 12 15"><g fill-rule="evenodd"><path d="M0 13.777c0 1.104.774 1.528 1.712.959l9.569-5.809c.945-.574.938-1.509 0-2.079L1.71 1.04C.767.465 0 .893 0 1.998v11.78z"/></g></symbol><symbol id="view" viewBox="0 0 18 9"><path d="M17.1 4.7c-.1-.1-.1-.2-.2-.3l-1.6-1.6C11.8-.7 6-.7 2.4 2.8L.9 4.3c-.1.1-.2.3-.3.4l1.7 1 1.5-1.5c2.8-2.8 7.3-2.8 10.1 0l1.6 1.6 1.6-1.1z"/><circle cx="9" cy="6" r="3"/></symbol><symbol id="vkontakte" viewBox="0 0 26 26"><path d="M20.588 0H5.412A5.417 5.417 0 0 0 0 5.41v15.18A5.417 5.417 0 0 0 5.412 26h15.176A5.417 5.417 0 0 0 26 20.59V5.41A5.417 5.417 0 0 0 20.588 0zm.454 18.159l-2.362.032s-.509.098-1.176-.351c-.883-.593-1.715-2.134-2.365-1.935-.546.167-.661.795-.661 1.44 0 .232-.166.336-.604.336h-1.058c-1.426 0-2.842-.065-4.387-1.718C6.244 13.626 4.21 9.266 4.21 9.266s-.113-.237.01-.381c.14-.162.52-.142.52-.142h2.526s.238.046.41.168c.14.101.219.294.219.294s.408 1.014.95 1.929C9.9 12.92 10.39 13.31 10.748 13.12c.524-.28.367-2.524.367-2.524s.01-.816-.264-1.179c-.21-.281-.608-.363-.784-.386-.142-.019.09-.342.393-.487.455-.218 1.258-.23 2.208-.22.739.006.952.052 1.24.12.872.206.576 1.001.576 2.91 0 .61-.113 1.47.337 1.755.194.122.668.018 1.851-1.95.563-.934.983-2.031.983-2.031s.093-.171.236-.255c.146-.086.141-.084.342-.084.202 0 2.218-.016 2.66-.016.442 0 .857-.005.928.26.103.381-.298 1.236-1.385 2.654-1.785 2.328-1.983 2.11-.502 3.456 1.415 1.286 1.708 1.911 1.756 1.99.587.951-.649 1.026-.649 1.026z" fill-rule="evenodd"/></symbol></svg>