<?xml version="1.0" encoding="UTF-8"?><!DOCTYPE svg PUBLIC "-//W3C//DTD SVG 1.1//EN" "http://www.w3.org/Graphics/SVG/1.1/DTD/svg11.dtd"><svg xmlns="http://www.w3.org/2000/svg" xmlns:xlink="http://www.w3.org/1999/xlink"><defs>
        <circle id="path-1" cx="18" cy="18" r="18"/>
    <path id="a" d="M17.707 8.854V0H0v17.707h17.707V8.854z"/></defs><symbol id="basketball" viewBox="0 0 59 59"><g fill-rule="evenodd"><path d="M58.041 29.5c0-16.016-12.983-29-29-29-16.016 0-29 12.984-29 29s12.984 29 29 29c16.017 0 29-12.984 29-29zm-53 0c0-13.255 10.746-24 24-24 13.255 0 24 10.745 24 24s-10.745 24-24 24c-13.254 0-24-10.745-24-24z"/><path d="M38.583 29.5a27.91 27.91 0 0 0 8.167 19.761l2.125-2.117A24.911 24.911 0 0 1 41.583 29.5a24.911 24.911 0 0 1 7.292-17.644L46.75 9.74A27.91 27.91 0 0 0 38.583 29.5zM19.5 29.5a27.91 27.91 0 0 0-8.167-19.761l-2.125 2.117A24.911 24.911 0 0 1 16.5 29.5a24.911 24.911 0 0 1-7.292 17.644l2.125 2.117A27.91 27.91 0 0 0 19.5 29.5zM30.041 3h-3v53h3z"/><path d="M55.541 30.5v-3h-53v3z"/></g></symbol><symbol id="check" viewBox="0 0 25 24"><g fill-rule="evenodd"><path d="M12.172 0c-6.627 0-12 5.373-12 12s5.373 12 12 12 12-5.373 12-12-5.373-12-12-12z"/><path fill="#FFF" d="M10.172 17.414l-4.707-4.707 1.414-1.414 3.293 3.293 7.293-7.293 1.414 1.414z"/></g></symbol><symbol id="close" viewBox="0 0 12 11"><g stroke-width="2" fill="none" fill-rule="evenodd" stroke-linecap="square"><path d="M1 1l12 12M13 1L1 13"/></g></symbol><symbol id="comment" viewBox="0 0 12 11"><path d="M10.91 0H1.09C.49 0 0 .492 0 1.094v6.562C0 8.258.49 8.75 1.09 8.75h1.365c.163.902 0 1.695-.819 2.187 1.119 0 2.4-.546 3-2.187h6.273c.6 0 1.091-.492 1.091-1.094V1.094C12 .492 11.51 0 10.91 0z" fill-rule="evenodd"/></symbol><symbol id="comments" viewBox="0 0 12 11"><path d="M10.91 0H1.09C.49 0 0 .492 0 1.094v6.562C0 8.258.49 8.75 1.09 8.75h1.365c.163.902 0 1.695-.819 2.187 1.119 0 2.4-.546 3-2.187h6.273c.6 0 1.091-.492 1.091-1.094V1.094C12 .492 11.51 0 10.91 0z" fill-rule="evenodd"/></symbol><symbol id="down" viewBox="0 0 19 23"><path d="M3.724.996H13.83c2.64 0 4.788 2.166 4.788 4.83v5.045c0 1.04-.302 1.993-.897 2.834l-5.961 8.269c-.37.628-.999 1.026-1.654 1.026-.883 0-2.127-.766-2.127-2.469 0-.487.132-.814.26-1.131a8.52 8.52 0 0 0 .092-.237c.2-.564 1.254-2.965 1.806-4.214-1.636-.002-5.264-.012-6.643-.053-1.517 0-2.431-1.037-2.431-2.039 0-.344.057-.814.105-1.144C.699 11.431 0 10.83 0 9.743c0-.753.359-1.312.704-1.677A2.12 2.12 0 0 1 0 6.47c0-1.077.735-1.73 1.262-2.061a3.192 3.192 0 0 1-.198-1.106c0-.963 1.012-2.307 2.66-2.307z" fill-rule="evenodd"/></symbol><symbol id="dropdown" viewBox="0 0 14 9"><g stroke-width="2" fill="none" fill-rule="evenodd" stroke-linecap="square"><path d="M1.462 1.5l5.567 6.032M12.538 1.5L6.971 7.532"/></g></symbol><symbol id="energy" viewBox="0 0 10 12"><path d="M6.637 0L0 6.844l.243.292h3.664l-1.922 4.703.512.161L10 5.156l-.234-.301H6.062L7.166.13z" fill-rule="evenodd"/></symbol><symbol id="expert" viewBox="0 0 22 20"><g fill="none" fill-rule="evenodd"><path d="M4.333 0c0 7.778 3 15.556 6.667 15.556S17.667 7.889 17.667 0H4.333z" fill="#FFC107"/><path d="M13.222 15.889c-.666.444-1.444.778-2.222.778s-1.556-.334-2.222-.778C9.222 18 5.444 17.667 5.444 20h11.112c0-2.333-3.778-2-3.334-4.111z" fill="#B57E02"/><path d="M16.556 1.111H21c0 6.778-3.889 3.445-4.444 7.778M5.444 1.111H1C1 7.89 4.889 4.556 5.444 8.89" stroke="#FFC107"/></g></symbol><symbol id="facebook" viewBox="0 0 26 26"><path d="M20.8 0H5.2A5.206 5.206 0 0 0 0 5.2v15.6C0 23.667 2.333 26 5.2 26h15.6c2.867 0 5.2-2.333 5.2-5.2V5.2C26 2.333 23.667 0 20.8 0zm-.52 8.84h-1.56c-1.115 0-1.56.262-1.56 1.04v1.56h3.12l-.52 3.12h-2.6v10.4h-3.64v-10.4h-1.56v-3.12h1.56V9.88c0-2.432.822-4.16 3.64-4.16 1.509 0 3.12.52 3.12.52v2.6z" fill-rule="evenodd"/></symbol><symbol id="football" viewBox="0 0 58 57"><path d="M29.129 0C13.415 0 .629 12.786.629 28.5S13.415 57 29.129 57s28.5-12.786 28.5-28.5S44.843 0 29.129 0zm22.589 41.6l-9.998 2.302-3.714-4.146 4.14-12.79 6.383-3.429 6.592 7.587A25.902 25.902 0 0 1 51.718 41.6zm-35.115 2.308l-10.07-2.32a25.924 25.924 0 0 1-3.39-10.391l6.67-7.679 6.23 3.045 4.277 13.195-3.717 4.15zM48.58 11.083L47.678 21.3l-5.998 3.222-11.334-8.26V8.51l9.241-3.943a26.234 26.234 0 0 1 8.993 6.516zm-29.878-6.53l9.27 3.957v7.753l-11.075 8.074-6.259-3.06-.907-10.257a26.255 26.255 0 0 1 8.97-6.467zm4.976 49.496l-5.19-8.684 3.702-4.135h13.945l3.702 4.131-5.174 8.671a26.308 26.308 0 0 1-5.534.593c-1.87 0-3.69-.202-5.45-.576z" fill-rule="evenodd"/></symbol><symbol id="gender" viewBox="0 0 27 23"><g transform="translate(1.294 1.4)" fill-rule="evenodd"><path d="M6.364 13.636L0 20M0 14.343L5.657 20M18 0h6v6M24 0l-5.525 5.525" fill="none"/><path d="M14.505 6.05a2.984 2.984 0 0 0-1.791 1.03A3.978 3.978 0 0 1 14 10c0 .591-.137 1.148-.368 1.654.412.214.872.346 1.368.346.235 0 .461-.034.681-.085A5.954 5.954 0 0 0 16 10a5.968 5.968 0 0 0-1.495-3.95zM10.099 13.99c-.034.001-.065.01-.099.01-2.206 0-4-1.794-4-4a3.999 3.999 0 0 1 2.549-3.718 7.019 7.019 0 0 1 1.555-2.277C10.069 4.005 10.035 4 10 4c-3.309 0-6 2.691-6 6s2.691 6 6 6c.854 0 1.666-.182 2.402-.505a7.025 7.025 0 0 1-2.303-1.505z"/><circle fill="none" cx="15" cy="9" r="5"/></g></symbol><symbol id="hamburger" viewBox="0 0 23 16"><g fill-rule="evenodd"><path d="M0 7h23v2H0zM0 0h23v2H0zM0 14h23v2H0z"/></g></symbol><symbol id="hockey" viewBox="0 0 57 58"><g fill-rule="evenodd"><path d="M30.742 18.47c0-4.396-6.845-7.581-15.142-7.581S.458 14.074.458 18.469c0 4.397 6.845 7.582 15.142 7.582s15.142-3.185 15.142-7.581zm-28.284 0c0-2.874 5.818-5.581 13.142-5.581s13.142 2.707 13.142 5.58c0 2.874-5.818 5.582-13.142 5.582S2.458 21.343 2.458 18.47zM15.6 24.13C7.886 24.131.172 22.157.172 17.55v5.923c0 4.607 4.408 9.433 15.428 9.433s15.427-4.826 15.427-9.433V17.55c0 4.607-7.714 6.581-15.427 6.581z"/><path d="M56.152 0h-4.628l-9.477 32.687c-1.543 5.265-6.392 8.994-11.901 8.994H10.09c-4.188 0-7.714 3.51-7.714 7.678s3.526 7.678 7.714 7.678h17.19c7.494 0 14.106-4.826 16.09-12.065l.88-3.291L56.153 0zM28.823 52.65H13.396v-6.582h15.427v6.582z"/></g></symbol><symbol id="img-upload" viewBox="0 0 18 16"><g fill-rule="evenodd"><path d="M16.2 2H1.8C.81 2 0 2.788 0 3.75v10.5C0 15.213.81 16 1.8 16h14.4c.99 0 1.8-.787 1.8-1.75V3.75C18 2.788 17.19 2 16.2 2zM9 13.125c-2.52 0-4.5-1.925-4.5-4.375S6.48 4.375 9 4.375 13.5 6.3 13.5 8.75s-1.98 4.375-4.5 4.375z"/><ellipse cx="9" cy="8.75" rx="3.15" ry="3.063"/><path d="M14.4 2.625L11.7 0H6.3L3.6 2.625z"/></g></symbol><symbol id="lock" viewBox="0 0 19 24"><g fill-rule="evenodd"><path d="M.294 11h18v13h-18z"/><path d="M14.294 12V6a5 5 0 0 0-10 0v6" fill="none"/></g></symbol><symbol id="marker" viewBox="0 0 18 25"><path d="M9.294.2c-4.68 0-8.4 3.72-8.4 8.4 0 7.2 8.4 15.6 8.4 15.6s8.4-8.52 8.4-15.6c0-4.68-3.72-8.4-8.4-8.4zm0 11.4c-1.68 0-3-1.32-3-3s1.32-3 3-3 3 1.32 3 3-1.32 3-3 3z" fill-rule="evenodd"/></symbol><symbol id="more" viewBox="0 0 23 5"><g fill-rule="evenodd"><circle cx="2.5" cy="2.5" r="2.5"/><circle cx="11.5" cy="2.5" r="2.5"/><circle cx="20.5" cy="2.5" r="2.5"/></g></symbol><symbol id="note" viewBox="0 0 17 18"><path d="M7.122 15.807C2.797 15.64 0 14.68 0 13.458c0-.95 3.864-4.116 3.864-4.75V4.75C3.864 2.138 5.95 0 8.5 0c2.55 0 4.636 2.138 4.636 4.75v3.958c0 .634 3.864 3.8 3.864 4.75 0 1.22-2.797 2.181-7.122 2.35.112.185.167.34.167.609 0 .87-.695 1.583-1.545 1.583s-1.545-.712-1.545-1.583c0-.27.055-.424.167-.61z" fill-rule="evenodd"/></symbol><symbol id="person" viewBox="0 0 36 36">
    
    <g id="Design-v.2.1" stroke="none" stroke-width="1" fill="none" fill-rule="evenodd">
        <g id="Home-360-Menu" transform="translate(-16.000000, -88.000000)">
            <g id="Group-29">
                <g id="Group-28" transform="translate(16.000000, 88.000000)">
                    <g id="Person">
                        <mask id="mask-2" fill="white">
                            <use xlink:href="#path-1"/>
                        </mask>
                        <use id="Mask" fill="#444444" xlink:href="#path-1"/>
                        <g id="Group-25" mask="url(#mask-2)">
                            <g transform="translate(3.772725, 8.000000)" id="Group-45">
                                <g>
                                    <path d="M14.2272754,14 C18.0932686,14 21.2272754,10.8659932 21.2272754,7 C21.2272754,3.13400675 18.0932686,-3.55271368e-14 14.2272754,-3.55271368e-14 C10.3612821,-3.55271368e-14 7.22727539,3.13400675 7.22727539,7 C7.22727539,10.8659932 10.3612821,14 14.2272754,14 Z M14.3050781,31.9090909 C8.93671875,31.9090909 0.514285714,26.9090909 0.514285714,26.9090909 C0.514285714,20.3547078 6.68571429,15.1112013 14.4,15.1112013 C22.1142857,15.1112013 28.2857143,20.3547078 28.2857143,26.9090909 C28.2857143,26.9090909 18.1938616,31.9090909 14.3050781,31.9090909 Z" id="Combined-Shape" fill="#9E9E9E"/>
                                </g>
                            </g>
                        </g>
                    </g>
                </g>
            </g>
        </g>
    </g>
</symbol><symbol id="plus-small" viewBox="0 0 22 22"><g transform="translate(1 1)" fill-rule="evenodd"><path d="M9.5 5h1v10h-1z"/><path d="M5 10.5v-1h10v1z"/><circle fill="none" cx="10" cy="10" r="10"/></g></symbol><symbol id="read-message" viewBox="0 0 23 23"><g fill-rule="evenodd"><path d="M11.294 3.13l8.8 5.28V20.4h-17.6V8.41l8.8-5.28zm0-2.53l-9.9 5.94c-.66.44-1.1 1.1-1.1 1.87V20.4c0 1.21.99 2.2 2.2 2.2h17.6c1.21 0 2.2-.99 2.2-2.2V8.41c0-.77-.44-1.54-1.1-1.87L11.294.6z"/><path d="M11.294 14.9l-8.8-6.6-2.2.11V20.4c0 1.21.99 2.2 2.2 2.2h17.6c1.21 0 2.2-.99 2.2-2.2V8.41l-2.2-.11-8.8 6.6z"/></g></symbol><symbol id="russian" viewBox="0 0 9 6"><path fill="#fff" d="M0 0h9v3H0z"/><path fill="#d52b1e" d="M0 3h9v3H0z"/><path fill="#0039a6" d="M0 2h9v2H0z"/></symbol><symbol id="search" viewBox="0 0 18 18"><g fill-rule="evenodd"><mask id="b" fill="#fff"><use xlink:href="#a"/></mask><path d="M2 7a5 5 0 1 1 10.001.001A5 5 0 0 1 2 7zm15.707 9.293l-5.106-5.107A6.962 6.962 0 0 0 14 7a7 7 0 1 0-7 7 6.962 6.962 0 0 0 4.186-1.399l5.107 5.106 1.414-1.414z" mask="url(#b)"/></g></symbol><symbol id="subscribe" viewBox="0 0 117 117"><g fill="none" fill-rule="evenodd"><circle fill="#C5E2F9" opacity=".3" cx="58.25" cy="58.25" r="58"/><path fill="#2196F3" d="M47.118 68.132l-3.069 8.618L81 30z"/><path fill="#90CAF9" d="M64 81L30 55.5 81 30z"/><path fill="#1565C0" d="M47.118 68.132l-3.069 8.618-3.376-13.246L76.75 34.251z"/></g></symbol><symbol id="ttd-team" viewBox="0 0 18 18"><g stroke="#FFF" fill-rule="evenodd"><g fill="#444"><path d="M17.165 7.166a16.365 16.365 0 0 0-.15-.636l-2.934.585c.05.16.113.337.18.53a7.205 7.205 0 0 1 .25.878l.373-.06 2.45-.397c-.053-.322-.11-.62-.169-.9zM1.66 6.506c-.054.206-.105.429-.154.66h-.002c-.06.28-.117.578-.17.9l2.45.396.374.061c.064-.317.16-.614.253-.886.075-.218.147-.418.2-.592L1.66 6.506zM6.977.98s.945.458 2.357.458c1.412 0 2.348-.458 2.348-.458v4.572H6.977V.98z"/></g><path d="M17.165 8.167c-.445-2.095-1.048-5.168-1.498-5.605l-.215-.21L11.687.98c-.178.277 0 2.287-2.353 2.287S7.16 1.257 6.981.98L3.217 2.352 3 2.562c-.48.465-1.527 5.743-1.497 5.605l2.906.47c.08-.228.156-.581.21-.761l.008 9.104h9.412l.01-9.104c.053.182.131.538.21.77 0-.003 2.905-.48 2.905-.48z"/></g></symbol><symbol id="twitter" viewBox="0 0 26 21"><path d="M25.53 2.719c-.922.409-1.913.685-2.954.81A5.155 5.155 0 0 0 24.838.685a10.3 10.3 0 0 1-3.265 1.246 5.142 5.142 0 0 0-8.76 4.689A14.601 14.601 0 0 1 2.214 1.248a5.128 5.128 0 0 0-.695 2.587c0 1.783.906 3.356 2.287 4.28a5.114 5.114 0 0 1-2.329-.644v.065A5.147 5.147 0 0 0 5.6 12.578a5.111 5.111 0 0 1-2.322.087 5.154 5.154 0 0 0 4.803 3.572 10.313 10.313 0 0 1-6.385 2.199c-.416 0-.824-.024-1.226-.072a14.543 14.543 0 0 0 7.881 2.31c9.457 0 14.63-7.835 14.63-14.627 0-.223-.006-.446-.015-.665a10.447 10.447 0 0 0 2.564-2.663z" fill-rule="evenodd"/></symbol><symbol id="up" viewBox="0 0 19 23"><path d="M14.895 22.004H4.788c-2.64 0-4.788-2.166-4.788-4.83V12.13c0-1.04.302-1.993.897-2.834l5.961-8.269C7.228.398 7.857 0 8.512 0c.883 0 2.127.766 2.127 2.469 0 .487-.131.814-.26 1.131a8.52 8.52 0 0 0-.092.237c-.2.564-1.254 2.965-1.806 4.214 1.636.002 5.264.012 6.643.053 1.517 0 2.431 1.037 2.431 2.039 0 .344-.057.814-.105 1.144.47.282 1.169.884 1.169 1.97 0 .753-.359 1.312-.704 1.677.351.326.704.84.704 1.596 0 1.077-.735 1.73-1.262 2.061.104.28.198.658.198 1.106 0 .963-1.012 2.307-2.66 2.307z" fill-rule="evenodd"/></symbol><symbol id="user" viewBox="0 0 23 24"><g fill-rule="evenodd"><path d="M15.915 17.38a9.766 9.766 0 0 1-4.623 1.16c-1.67 0-3.243-.42-4.621-1.16-2.976.782-5.308 2.635-6.377 6.62h22c-1.07-3.986-3.401-5.839-6.38-6.62zM11.294 16a8 8 0 1 0-.001-16 8 8 0 0 0 0 16z"/></g></symbol><symbol id="video-upload" viewBox="0 0 12 15"><g fill-rule="evenodd"><path d="M0 13.777c0 1.104.774 1.528 1.712.959l9.569-5.809c.945-.574.938-1.509 0-2.079L1.71 1.04C.767.465 0 .893 0 1.998v11.78z"/></g></symbol><symbol id="view" viewBox="0 0 18 9"><g fill-rule="evenodd"><path d="M16.29 5.21a.825.825 0 0 0-.096-.114L14.617 3.53c-3.17-3.146-8.329-3.146-11.5 0L1.602 5.035a.855.855 0 0 0-.136.176" fill="none"/><path d="M8.886 2.41a3.268 3.268 0 0 0-3.264 3.266c0 1.8 1.464 3.265 3.264 3.265 1.8 0 3.264-1.465 3.264-3.265S10.686 2.41 8.886 2.41z"/></g></symbol><symbol id="vkontakte" viewBox="0 0 26 26"><path d="M20.588 0H5.412A5.417 5.417 0 0 0 0 5.41v15.18A5.417 5.417 0 0 0 5.412 26h15.176A5.417 5.417 0 0 0 26 20.59V5.41A5.417 5.417 0 0 0 20.588 0zm.454 18.159l-2.362.032s-.509.098-1.176-.351c-.883-.593-1.715-2.134-2.365-1.935-.546.167-.661.795-.661 1.44 0 .232-.166.336-.604.336h-1.058c-1.426 0-2.842-.065-4.387-1.718C6.244 13.626 4.21 9.266 4.21 9.266s-.113-.237.01-.381c.14-.162.52-.142.52-.142h2.526s.238.046.41.168c.14.101.219.294.219.294s.408 1.014.95 1.929C9.9 12.92 10.39 13.31 10.748 13.12c.524-.28.367-2.524.367-2.524s.01-.816-.264-1.179c-.21-.281-.608-.363-.784-.386-.142-.019.09-.342.393-.487.455-.218 1.258-.23 2.208-.22.739.006.952.052 1.24.12.872.206.576 1.001.576 2.91 0 .61-.113 1.47.337 1.755.194.122.668.018 1.851-1.95.563-.934.983-2.031.983-2.031s.093-.171.236-.255c.146-.086.141-.084.342-.084.202 0 2.218-.016 2.66-.016.442 0 .857-.005.928.26.103.381-.298 1.236-1.385 2.654-1.785 2.328-1.983 2.11-.502 3.456 1.415 1.286 1.708 1.911 1.756 1.99.587.951-.649 1.026-.649 1.026z" fill-rule="evenodd"/></symbol></svg>