<?xml version="1.0" encoding="UTF-8"?>
<svg width="80px" height="26px" viewBox="0 0 80 26" version="1.1" xmlns="http://www.w3.org/2000/svg" xmlns:xlink="http://www.w3.org/1999/xlink">
    <!-- Generator: sketchtool 41.2 (35397) - http://www.bohemiancoding.com/sketch -->
    <title>EF9B82AE-F3CE-40F9-A72A-7F37E39DDB72</title>
    <desc>Created with sketchtool.</desc>
    <defs></defs>
    <g id="Symbols" stroke="none" stroke-width="1" fill="none" fill-rule="evenodd">
        <g id="Logo-Light">
            <g id="Logo_light">
                <g id="Page-1-Copy" transform="translate(0.000000, 0.428571)">
                    <polygon id="Fill-1" fill="#FFFFFF" points="35.3700033 1.29934593 33.4761905 1.29934593 33.7007221 0 38.9047619 0 38.6802303 1.29934593 36.805786 1.29934593 35.781525 7.23809524 34.3457423 7.23809524"></polygon>
                    <polygon id="Fill-2" fill="#FFFFFF" points="41.0708072 0 42.5238095 0 41.2611964 7.23809524 39.8095238 7.23809524"></polygon>
                    <polygon id="Fill-3" fill="#FFFFFF" points="52.4761905 0 51.2989982 7.23809524 49.945537 7.23809524 50.8551702 1.63968133 50.7079789 1.63968133 48.5458672 6.91754316 47.1911663 6.91754316 46.743619 1.63968133 46.5964277 1.63968133 45.6869072 7.23809524 44.3333333 7.23809524 45.5105256 0 47.8162221 0 48.1360758 5.26857046 50.170494 0"></polygon>
                    <polygon id="Fill-4" fill="#FFFFFF" points="56.5812009 1.27695135 56.3084246 2.96944676 58.6567067 2.96944676 58.4548812 4.22647058 56.107713 4.22647058 55.8288106 5.96114389 58.7577308 5.96114389 58.5522297 7.23809524 54.2857143 7.23809524 55.4478817 0 59.7142857 0 59.5100098 1.27695135"></polygon>
                    <polygon id="Fill-5" fill="#FFFFFF" points="67.03667 1.29934593 65.1428571 1.29934593 65.3673887 0 70.5714286 0 70.346897 1.29934593 68.4724527 1.29934593 67.4481917 7.23809524 66.012409 7.23809524"></polygon>
                    <g id="Group-20">
                        <path d="M75.192607,5.83500621 C75.4257134,5.68088199 75.6135065,5.43388199 75.7584389,5.09518634 C75.9020866,4.75649068 76.0242456,4.29553416 76.1263172,3.71361491 C76.227221,3.13169565 76.2637753,2.66696273 76.2372647,2.32059627 C76.2095862,1.97670807 76.1075146,1.71955901 75.9297651,1.5513913 C75.7521324,1.38334161 75.4836396,1.29931677 75.1245203,1.29931677 C74.765401,1.29931677 74.4667772,1.38334161 74.2311015,1.5513913 C73.9955426,1.71955901 73.8027276,1.97670807 73.6539412,2.32059627 C73.5052717,2.66696273 73.3818281,3.13169565 73.2810411,3.71361491 C73.1852759,4.25481988 73.1461523,4.69276398 73.1613346,5.02898137 C73.1776848,5.36508075 73.2734499,5.61975155 73.4499147,5.79806832 C73.6249781,5.97638509 73.9059671,6.06548447 74.2928817,6.06548447 C74.6583075,6.06548447 74.9582159,5.98913043 75.192607,5.83500621 M72.4669205,6.91859627 C72.0901663,6.6652236 71.8557753,6.27554658 71.7600101,5.7522795 C71.6655296,5.22889441 71.6907556,4.54890683 71.8368558,3.71361491 C71.9830729,2.87195031 72.1959752,2.18429193 72.4757963,1.65335404 C72.7542159,1.12359627 73.1259482,0.72636646 73.5935625,0.462726708 C74.0584906,0.197906832 74.6419573,0.0666770186 75.3399919,0.0666770186 C76.0381432,0.0666770186 76.5737274,0.197906832 76.9479122,0.462726708 C77.3222138,0.72636646 77.5553202,1.12359627 77.6498007,1.65335404 C77.7431133,2.18429193 77.7166027,2.87195031 77.5705025,3.71361491 C77.4268548,4.53616149 77.2201422,5.206 76.9491969,5.72678882 C76.6795362,6.24757764 76.3103732,6.63973292 75.8440436,6.90337267 C75.3778308,7.16689441 74.7893423,7.29812422 74.0774101,7.29812422 C73.3792587,7.29812422 72.8425067,7.17196894 72.4669205,6.91859627" id="Fill-6" fill="#FFFFFF"></path>
                        <polygon id="Fill-10" fill="#3BD783" points="11.4044509 6.66364324 10.0958674 2.71428571 8.40117235 2.71428571 3.94400615 2.71428571 5.25258959 6.66364324 7.74646611 6.66364324 4.69156508 25.3333333 10.8434264 25.3333333 13.8983274 6.66364324"></polygon>
                        <path d="M24.9399867,13.2055526 C24.6126342,15.2939206 24.2509358,16.900468 23.8571417,18.0261522 C23.4620449,19.1515971 22.8557796,20.0057336 22.0379907,20.6090267 C21.2202018,21.2123197 20.0655857,21.5036141 18.5727212,21.5036141 L15.4381202,21.5036141 L17.8384284,6.66363499 L20.9730294,6.66363499 C22.4658939,6.66363499 23.5327502,6.66291693 24.1733614,7.11517726 C24.8138541,7.56815565 25.1747235,8.15672837 25.2559694,9.10768381 C25.3357941,10.0593573 25.2309798,11.3492387 24.9399867,13.2055526 M30.001277,6.7319707 C29.6931109,5.10771105 28.8858626,4.2594387 27.5810718,3.50511299 C26.2748598,2.75150534 24.2913219,2.71428571 21.6276158,2.71428571 L17.6392219,2.71428571 L13.7400091,2.71428571 L9.28285217,2.71428571 L10.5914329,6.66363499 L13.0853042,6.66363499 L10.0304096,25.3332861 L17.9180163,25.3332861 C20.5817224,25.3332861 22.6963671,25.0991974 24.2620687,24.2638502 C25.8289546,23.428503 27.0230093,22.2325682 27.8468384,20.4925807 C28.6707859,18.7519947 29.3173188,16.4310938 29.7864371,13.4380855 C30.2373166,10.5615231 30.3094431,8.35623035 30.001277,6.7319707" id="Fill-8" fill="#FFFFFF"></path>
                        <polygon id="Fill-12" fill="#29C571" points="5.3082609 6.43935982 3.99968019 2.71428571 3.22251423 2.71428571 3.50360315e-05 2.71428571 1.30861575 6.43935982 3.67173558 6.54407742 0.661135366 25.3332861 5.35231847 25.3332861 8.36765605 6.5163123"></polygon>
                        <g id="Group-39" transform="translate(28.952381, 9.952381)" fill="#FFFFFF">
                            <path d="M7.93843451,7.23870695 C8.42148668,7.23870695 8.82336777,7.05287753 9.14540255,6.67939326 C9.46743732,6.30639577 9.66964241,5.85368755 9.75310168,5.32090353 C9.83427275,4.80369657 9.75767809,4.36145419 9.52054777,3.99661032 C9.28365832,3.63115796 8.93223817,3.44837094 8.46508301,3.44837094 L6.40907041,3.44837094 L5.81498008,7.23870695 L7.93843451,7.23870695 Z M2.92702423,0 L9.00558117,0 C10.9034667,0 12.2613359,0.449665818 13.0769004,1.34717202 C13.8923445,2.24601687 14.1628344,3.57043178 13.8884907,5.32090353 C13.6141469,7.07149698 12.7659454,8.54072984 11.3453312,9.72762855 L12.1150112,15.345348 L7.70744622,15.345348 L7.32688156,10.7100784 L5.27086896,10.7100784 L4.54442402,15.345348 L0.521879688,15.345348 L2.92702423,0 Z" id="Fill-14"></path>
                            <path d="M21.6220584,3.33444832 L20.6277776,3.33444832 L18.5657529,9.86509923 L21.6380758,9.86509923 L21.6220584,3.33444832 Z M21.7648899,13.3817253 L17.3365107,13.3817253 L16.734595,15.3452772 L12.6666667,15.3452772 L17.9873214,0 L25.3090626,0 L25.8192095,15.3452772 L21.7514016,15.3452772 L21.7648899,13.3817253 Z" id="Fill-16"></path>
                            <polygon id="Fill-18" points="49.860295 -1.77635684e-15 39.1946623 -1.77635684e-15 39.0064601 -1.77635684e-15 29.0953219 -1.77635684e-15 26.6904762 15.3309923 30.7123193 15.3309923 31.4603116 10.5856851 36.2948076 10.5856851 36.84942 7.05712343 32.014924 7.05712343 32.5624322 3.65023625 38.3862238 3.65023625 41.6498397 3.58903396 39.7955125 15.3309923 43.8626301 15.3309923 45.7181615 3.54754294 51.0788529 3.54328433"></polygon>
                        </g>
                    </g>
                </g>
            </g>
        </g>
    </g>
</svg>