<?xml version="1.0" encoding="UTF-8"?>
<svg width="87px" height="28px" viewBox="0 0 87 28" version="1.1" xmlns="http://www.w3.org/2000/svg" xmlns:xlink="http://www.w3.org/1999/xlink">
    <!-- Generator: sketchtool 41.2 (35397) - http://www.bohemiancoding.com/sketch -->
    <title>D7843C8B-B8CD-4F01-B39B-32077BEBF262</title>
    <desc>Created with sketchtool.</desc>
    <defs></defs>
    <g id="Symbols" stroke="none" stroke-width="1" fill="none" fill-rule="evenodd">
        <g id="Logo" transform="translate(0.000000, -6.000000)">
            <g transform="translate(0.000000, 6.000000)">
                <polygon id="Fill-1" fill="#363636" points="37.0931615 1.43611918 35 1.43611918 35.2481665 0 41 0 40.7518335 1.43611918 38.6800793 1.43611918 37.5480013 8 35.9610836 8"></polygon>
                <polygon id="Fill-2" fill="#363636" points="43.3940501 0 45 0 43.6044803 8 42 8"></polygon>
                <polygon id="Fill-3" fill="#363636" points="56 0 54.6988927 8 53.2029619 8 54.208346 1.81227937 54.0456609 1.81227937 51.6559585 7.6457056 50.1586574 7.6457056 49.664 1.81227937 49.5013149 1.81227937 48.4960554 8 47 8 48.3011073 0 50.8495087 0 51.2030311 5.82315683 53.4515986 0"></polygon>
                <polygon id="Fill-4" fill="#363636" points="60.5371168 1.41136728 60.2356272 3.2820201 62.8310969 3.2820201 62.6080266 4.67136222 60.013788 4.67136222 59.7055275 6.58863272 62.9427551 6.58863272 62.7156223 8 58 8 59.2845008 0 64 0 63.7742213 1.41136728"></polygon>
                <polygon id="Fill-5" fill="#363636" points="72.0931615 1.43611918 70 1.43611918 70.2481665 0 76 0 75.7518335 1.43611918 73.6800793 1.43611918 72.5480013 8 70.9610836 8"></polygon>
                <g id="Group-20">
                    <path d="M81.1076182,6.44921739 C81.3652622,6.27886957 81.572823,6.00586957 81.7330114,5.63152174 C81.89178,5.25717391 82.0267978,4.74769565 82.1396138,4.10452174 C82.251139,3.46134783 82.2915411,2.94769565 82.2622399,2.56486957 C82.2316479,2.18478261 82.1188319,1.90056522 81.922372,1.71469565 C81.7260411,1.52895652 81.4292859,1.43608696 81.0323645,1.43608696 C80.6354432,1.43608696 80.3053853,1.52895652 80.0449016,1.71469565 C79.784547,1.90056522 79.5714358,2.18478261 79.4069877,2.56486957 C79.2426687,2.94769565 79.106231,3.46134783 78.9948349,4.10452174 C78.8889892,4.70269565 78.8457473,5.18673913 78.8625277,5.55834783 C78.880599,5.92982609 78.9864447,6.21130435 79.1814847,6.4083913 C79.3749758,6.60547826 79.6855426,6.70395652 80.113185,6.70395652 C80.5170767,6.70395652 80.8485545,6.61956522 81.1076182,6.44921739 M78.0950174,7.64686957 C77.6786049,7.36682609 77.4195411,6.93613043 77.3136954,6.35778261 C77.2092696,5.77930435 77.2371509,5.02773913 77.3986301,4.10452174 C77.5602384,3.17426087 77.7955515,2.41421739 78.1048274,1.8273913 C78.4125545,1.24186957 78.8234165,0.802826087 79.3402533,0.511434783 C79.8541212,0.21873913 80.4990055,0.0736956522 81.2705174,0.0736956522 C82.0421583,0.0736956522 82.6341197,0.21873913 83.0476924,0.511434783 C83.4613942,0.802826087 83.7190381,1.24186957 83.8234639,1.8273913 C83.926599,2.41421739 83.8972978,3.17426087 83.7358185,4.10452174 C83.57705,5.01365217 83.3485782,5.754 83.0491123,6.3296087 C82.7510663,6.90521739 82.3430441,7.33865217 81.8276272,7.63004348 C81.3123393,7.92130435 80.6619046,8.06634783 79.8750322,8.06634783 C79.1033912,8.06634783 78.510139,7.92691304 78.0950174,7.64686957" id="Fill-6" fill="#363636"></path>
                    <polygon id="Fill-10" fill="#0BC36F" points="12.6049194 7.36507937 11.1585903 3 9.28550628 3 4.35916469 3 5.80549376 7.36507937 8.56188359 7.36507937 5.18541404 28 11.9848397 28 15.3613092 7.36507937"></polygon>
                    <path d="M24.3684198,19.9236419 C23.9317338,21.1675547 23.2616512,22.1116003 22.3577792,22.7783979 C21.4539072,23.4451954 20.1777526,23.7671524 18.5277445,23.7671524 L17.0631855,23.7671524 L19.7161578,7.36507026 L21.1807167,7.36507026 C22.8307248,7.36507026 24.0098818,7.36427661 24.7179257,7.86414329 C25.4258388,8.36480362 25.8246944,9.01533136 25.9144925,10.0663874 C26.0027198,11.118237 25.8868724,12.5438954 25.5652484,14.5956107 C25.2034378,16.903807 24.8036659,18.6794646 24.3684198,19.9236419 Z M28.4843425,3.87407225 C27.0406345,3.04113748 24.8483032,3 21.904207,3 L19.4959821,3 L15.1863258,3 L10.2599945,3 L11.7063206,7.36507026 L14.4627046,7.36507026 L11.0862421,27.9999478 L17.8041233,27.9999478 C20.7482195,27.9999478 23.0854583,27.7412182 24.8159706,26.8179397 C26.5477919,25.8946612 27.8675366,24.5728386 28.7780846,22.6496944 C29.6887634,20.7258889 30.4033524,18.1606826 30.9218516,14.8526208 C31.420192,11.6732623 31.4999108,9.23583355 31.1593061,7.4405992 C30.8187015,5.64536485 29.9264798,4.70780067 28.4843425,3.87407225 Z" id="Fill-8" fill="#363636"></path>
                    <polygon id="Fill-12" fill="#3BD783" points="5.86702521 7.11718717 4.42069916 3 3.56172626 3 3.87240352e-05 3 1.44636478 7.11718717 4.05823406 7.23292767 0.730728562 27.9999478 5.91572041 27.9999478 9.24846195 7.20223991"></polygon>
                    <g id="Group-39" transform="translate(30.000000, 11.000000)" fill="#363636">
                        <path d="M8.7740592,8.0006761 C9.30795896,8.0006761 9.75214333,7.79528569 10.1080765,7.38248728 C10.4640097,6.9702269 10.6874995,6.46986519 10.779744,5.88099864 C10.8694594,5.30934884 10.7848021,4.82055464 10.5227107,4.41730614 C10.2608855,4.01338512 9.87247376,3.81135735 9.35614438,3.81135735 L7.0837094,3.81135735 L6.42708324,8.0006761 L8.7740592,8.0006761 Z M3.23513205,0 L9.95353708,0 C12.0512001,0 13.5520028,0.496999062 14.4534162,1.4889796 C15.3546965,2.4824397 15.6536591,3.94626671 15.350437,5.88099864 C15.047215,7.81586509 14.1097291,9.43975404 12.5395766,10.7515895 L13.3902755,16.9606478 L8.51875635,16.9606478 L8.09813225,11.8374551 L5.82569727,11.8374551 L5.02278445,16.9606478 L0.576814392,16.9606478 L3.23513205,0 Z" id="Fill-14"></path>
                        <path d="M23.8980645,3.68544289 L22.7991226,3.68544289 L20.5200427,10.9035307 L23.9157679,10.9035307 L23.8980645,3.68544289 Z M24.055931,14.7903279 L19.1614065,14.7903279 L18.4961314,16.9605696 L14,16.9605696 L19.8807236,0 L27.9731744,0 L28.5370211,16.9605696 L24.0410228,16.9605696 L24.055931,14.7903279 Z" id="Fill-16"></path>
                        <polygon id="Fill-18" points="55.1087471 1.77635684e-15 43.3204162 1.77635684e-15 43.1124033 1.77635684e-15 32.1579873 1.77635684e-15 29.5 16.9447809 33.945195 16.9447809 34.7719233 11.6999678 40.1153136 11.6999678 40.7283063 7.79997852 35.384916 7.79997852 35.9900566 4.03447165 42.4268789 4.03447165 46.0340334 3.96682701 43.9845138 16.9447809 48.4797491 16.9447809 50.5305995 3.92096851 56.4555743 3.91626163"></polygon>
                    </g>
                </g>
            </g>
        </g>
    </g>
</svg>