<svg width="76" height="76" viewBox="0 0 76 76" xmlns="http://www.w3.org/2000/svg"><title>C08452D0-4072-4B9D-9193-470107EC726D</title><g fill="none" fill-rule="evenodd"><path d="M8.444 76h59.112C72.2 76 76 72.2 76 67.556V20.478c0-3.378-2.111-6.545-5.489-7.811L38 0 5.489 12.667C2.11 13.933 0 17.1 0 20.477v47.079C0 72.2 3.8 76 8.444 76z" fill="#4470D0"/><path d="M57 25.333H19a4.235 4.235 0 0 0-4.222 4.223v25.333c0 2.322 1.9 4.222 4.222 4.222h38c2.322 0 4.222-1.9 4.222-4.222V29.556c0-2.323-1.9-4.223-4.222-4.223z" fill="#E9EFF2"/><path d="M57 25.333H19a4.235 4.235 0 0 0-4.222 4.223v2.11L38 48.557l23.222-16.89v-2.11c0-2.323-1.9-4.223-4.222-4.223z" fill="#8E9496"/><path d="M57 25.333H19a4.235 4.235 0 0 0-4.222 4.223v2.11L38 44.334l23.222-12.666v-2.111c0-2.323-1.9-4.223-4.222-4.223z" fill="#EBEFF1"/></g></svg>