<svg width="17" height="15" viewBox="0 0 17 15" xmlns="http://www.w3.org/2000/svg"><title>28D0F612-3043-45F1-A5E7-6620C2BBCD6B</title><g fill="none" fill-rule="evenodd"><path d="M6.924 10.12l.223-.12h3.706l.223.12a7.58 7.58 0 0 1 1.391.996C13.408 11.96 14 12.91 14 14v1H4v-1c0-1.091.592-2.041 1.533-2.884a7.58 7.58 0 0 1 1.391-.996z" fill="#FFF"/><path d="M14 1h2.99l-.008 1.008c-.017 2.242-.411 3.295-1.73 4.278-.531.396-.232.23-2.604 1.535C11.754 9.783 10.508 11 9 11c-1.496 0-2.733-1.208-3.628-3.156-.42-.23-1.157-.635-1.377-.76a11.96 11.96 0 0 1-1.265-.798C1.41 5.303 1.017 4.25 1 2.008L.992 1H4V0h10v1z" fill="#FFF"/><path d="M5 1c0 4.5 1.8 9 4 9s4-4.436 4-9H5z" fill="#FFC107"/><path d="M7.4 11S5 12.297 5 14h8c0-1.703-2.4-3-2.4-3H7.4z" fill="#B57E02"/><path d="M7.452 6.617l.055.031a13.821 13.821 0 0 0-.627-1.665 28.783 28.783 0 0 0-.447-.964c-.28-.577-.581-.157-.882-.71l-.111-.204H3.05c.19 1.882 1.031 1.607 4.402 3.512zM5.996 2s5.194 7.972 1 5.601C2.803 5.231 2.025 5.318 2 2h3.996z" fill="#FFC107"/><path d="M10.53 6.617l-.055.031c.124-.433.338-1.008.627-1.665.136-.308.286-.63.447-.964.28-.577.581-.157.882-.71l.111-.204h2.39c-.19 1.882-1.031 1.607-4.402 3.512zM11.986 2s-5.194 7.972-1 5.601c4.193-2.37 4.971-2.283 4.996-5.601h-3.996z" fill="#FFC107"/></g></svg>