<?xml version="1.0" encoding="UTF-8"?>
<svg width="17px" height="15px" viewBox="0 0 17 15" version="1.1" xmlns="http://www.w3.org/2000/svg" xmlns:xlink="http://www.w3.org/1999/xlink">
    <!-- Generator: sketchtool 41.2 (35397) - http://www.bohemiancoding.com/sketch -->
    <title>28D0F612-3043-45F1-A5E7-6620C2BBCD6B</title>
    <desc>Created with sketchtool.</desc>
    <defs></defs>
    <g id="Symbols" stroke="none" stroke-width="1" fill="none" fill-rule="evenodd">
        <g id="cup_expert" transform="translate(1.000000, -1.000000)">
            <g id="Expert" transform="translate(-1.000000, 1.000000)">
                <g id="Layer_1">
                    <path d="M6.92448297,10.1202935 L7.14702592,10 L10.8529741,10 L11.075517,10.1202935 C11.438547,10.3165259 11.9495298,10.6531531 12.4670156,11.1164427 C13.4081882,11.9590466 14,12.9087446 14,14 L14,15 L4,15 L4,14 C4,12.9087446 4.59181181,11.9590466 5.53298444,11.1164427 C6.05047021,10.6531531 6.56145299,10.3165259 6.92448297,10.1202935 Z" id="Shape" fill="#FFFFFF"></path>
                    <path d="M14,1 L16.989558,1 L16.9819769,2.00752424 C16.9651067,4.24957665 16.5707924,5.30277345 15.2524177,6.2856637 C14.7206615,6.68210482 15.0196932,6.51609334 12.648497,7.82132077 C11.7540246,9.78339783 10.5075392,11 9,11 C7.50363612,11 6.26693284,9.79213509 5.37233043,7.8437681 C4.95152674,7.61320389 4.214646,7.20862594 3.99506586,7.08419663 C3.44813495,6.7742677 3.05958865,6.53169003 2.72958752,6.2856637 C1.41121281,5.30277345 1.01689852,4.24957665 1.00002831,2.00752424 L0.992447239,0.999999992 L3.99999973,1.00000002 L4,0 L14,1.11022302e-16 L14,1 Z" id="Combined-Shape" fill="#FFFFFF"></path>
                    <path d="M5,1 C5,5.5 6.8,10 9,10 C11.2,10 13,5.56428571 13,1 L5,1 L5,1 Z" id="Shape" fill="#FFC107"></path>
                    <path d="M7.4,11 C7.4,11 5,12.2972973 5,14 L13,14 C13,12.2972973 10.6,11 10.6,11 L7.4,11 Z" id="Shape-Copy" fill="#B57E02"></path>
                    <path d="M7.45172856,6.61721589 C7.47053901,6.62784846 7.48896258,6.63811963 7.50699125,6.64803937 C7.38270234,6.2145551 7.16900332,5.64021496 6.87999619,4.98338802 C6.74427221,4.67492794 6.59440542,4.35229222 6.43277466,4.01905908 C6.1529135,3.44207104 5.85196436,3.8618429 5.55097271,3.30836114 C5.51196103,3.23662409 5.47486696,3.16882888 5.43990124,3.1052708 C4.80154019,3.1052708 4.79613763,3.1052708 3.99479146,3.1052708 L3.04959585,3.1052708 C3.23912718,4.98737117 4.08149794,4.71219996 7.45172856,6.61721589 Z M5.99622252,2 C5.99622252,2 11.189765,9.97155537 6.99640562,7.60126761 C2.80304625,5.23097985 2.02496338,5.31763382 2,2 L5.99622252,2 Z" id="Path-3" fill="#FFC107"></path>
                    <path d="M14.8017289,6.61721589 C14.8205394,6.62784846 14.838963,6.63811963 14.8569916,6.64803937 C14.7327027,6.2145551 14.5190037,5.64021496 14.2299966,4.98338802 C14.0942726,4.67492794 13.9444058,4.35229222 13.782775,4.01905908 C13.5029139,3.44207104 13.2019647,3.8618429 12.9009731,3.30836114 C12.8619614,3.23662409 12.8248673,3.16882888 12.7899016,3.1052708 C12.1515406,3.1052708 12.146138,3.1052708 11.3447918,3.1052708 L10.3995962,3.1052708 C10.5891276,4.98737117 11.4314983,4.71219996 14.8017289,6.61721589 Z M13.3462229,2 C13.3462229,2 18.5397654,9.97155537 14.346406,7.60126761 C10.1530466,5.23097985 9.37496376,5.31763382 9.35000038,2 L13.3462229,2 Z" id="Path-3-Copy" fill="#FFC107" transform="translate(12.666003, 5.020795) scale(-1, 1) translate(-12.666003, -5.020795) "></path>
                </g>
            </g>
        </g>
    </g>
</svg>