<svg width="62" height="62" viewBox="0 0 62 62" xmlns="http://www.w3.org/2000/svg" xmlns:xlink="http://www.w3.org/1999/xlink" stroke="#000"><defs><path id="b" d="M.858 0h28.284L61 31.858v28.284z"/><filter x="-50%" y="-50%" width="200%" height="200%" filterUnits="objectBoundingBox" id="a"><feOffset dy="1" in="SourceAlpha" result="shadowOffsetOuter1"/><feGaussianBlur stdDeviation=".5" in="shadowOffsetOuter1" result="shadowBlurOuter1"/><feColorMatrix values="0 0 0 0 0 0 0 0 0 0 0 0 0 0 0 0 0 0 0.346212636 0" in="shadowBlurOuter1"/></filter></defs><g stroke="none" fill-rule="evenodd"><g><use filter="url(#a)" xlink:href="#b"/><use xlink:href="#b"/></g><path d="M31.31 22.904l-1.224-1.223 1.857-8.13-4.994 4.993-1.223-1.223 7.038-7.037 1.223 1.222-1.866 8.16 5.013-5.013 1.213 1.214-7.038 7.037zm8.7 2.417l-2.89-2.89-2.166 2.165 3.379 3.379-.977.976-4.601-4.601 7.038-7.038 4.567 4.568-.986.986-3.345-3.345-1.943 1.943 2.89 2.89-.966.967zm5.602 8.406l6.38-4.215 1.214 1.213-8.662 5.414-1.17-1.17 3.8-6.477-6.507 3.77-1.174-1.174 5.414-8.662 1.213 1.213-4.196 6.38 6.632-3.944 1.025 1.025-3.969 6.627z" fill="#FFF"/></g></svg>