<?xml version="1.0" encoding="UTF-8"?>
<svg width="76px" height="76px" viewBox="0 0 76 76" version="1.1" xmlns="http://www.w3.org/2000/svg" xmlns:xlink="http://www.w3.org/1999/xlink">
    <!-- Generator: sketchtool 41.2 (35397) - http://www.bohemiancoding.com/sketch -->
    <title>C08452D0-4072-4B9D-9193-470107EC726D</title>
    <desc>Created with sketchtool.</desc>
    <defs></defs>
    <g id="Design-v.2.2" stroke="none" stroke-width="1" fill="none" fill-rule="evenodd">
        <g id="Sign-in" transform="translate(-1473.000000, -905.000000)">
            <g id="Group-7" transform="translate(180.000000, 147.000000)">
                <g id="Group-8" transform="translate(0.000000, 673.000000)">
                    <g id="Group-26" transform="translate(1100.000000, 0.000000)">
                        <g id="Bitmap">
                            <g id="E-Mail" transform="translate(193.000000, 85.000000)">
                                <g id="Layer_1">
                                    <path d="M8.44444444,76 L67.5555556,76 C72.2,76 76,72.2 76,67.5555556 L76,20.4777778 C76,17.1 73.8888889,13.9333333 70.5111111,12.6666667 L38,0 L5.48888889,12.6666667 C2.11111111,13.9333333 0,17.1 0,20.4777778 L0,67.5555556 C0,72.2 3.8,76 8.44444444,76 Z" id="Shape" fill="#4470D0"></path>
                                    <path d="M57,25.3333333 L19,25.3333333 C16.6777778,25.3333333 14.7777778,27.2333333 14.7777778,29.5555556 L14.7777778,54.8888889 C14.7777778,57.2111111 16.6777778,59.1111111 19,59.1111111 L57,59.1111111 C59.3222222,59.1111111 61.2222222,57.2111111 61.2222222,54.8888889 L61.2222222,29.5555556 C61.2222222,27.2333333 59.3222222,25.3333333 57,25.3333333 Z" id="Shape" fill="#E9EFF2"></path>
                                    <path d="M57,25.3333333 L19,25.3333333 C16.6777778,25.3333333 14.7777778,27.2333333 14.7777778,29.5555556 L14.7777778,31.6666667 L38,48.5555556 L61.2222222,31.6666667 L61.2222222,29.5555556 C61.2222222,27.2333333 59.3222222,25.3333333 57,25.3333333 Z" id="Shape" fill="#8E9496"></path>
                                    <path d="M57,25.3333333 L19,25.3333333 C16.6777778,25.3333333 14.7777778,27.2333333 14.7777778,29.5555556 L14.7777778,31.6666667 L38,44.3333333 L61.2222222,31.6666667 L61.2222222,29.5555556 C61.2222222,27.2333333 59.3222222,25.3333333 57,25.3333333 Z" id="Shape" fill="#EBEFF1"></path>
                                </g>
                            </g>
                        </g>
                    </g>
                </g>
            </g>
        </g>
    </g>
</svg>