<?xml version="1.0" encoding="UTF-8"?>
<svg width="155px" height="38px" viewBox="0 0 155 38" version="1.1" xmlns="http://www.w3.org/2000/svg" xmlns:xlink="http://www.w3.org/1999/xlink">
    <!-- Generator: sketchtool 39.1 (31720) - http://www.bohemiancoding.com/sketch -->
    <title>22AB4288-FD92-4261-A446-5A5D10D871C3</title>
    <desc>Created with sketchtool.</desc>
    <defs></defs>
    <g id="Design-v.2.1" stroke="none" stroke-width="1" fill="none" fill-rule="evenodd">
        <g id="Home-01" transform="translate(-360.000000, -18.000000)">
            <g id="Menu">
                <g id="Logo" transform="translate(360.000000, 16.000000)">
                    <g id="logo" transform="translate(0.000000, 2.000000)">
                        <rect id="Rectangle-7" fill="#29C571" x="0" y="0" width="60" height="38"></rect>
                        <path d="M10.64,14.44 L7,14.44 L7,12 L17,12 L17,14.44 L13.4,14.44 L13.4,25.6 L10.64,25.6 L10.64,14.44 Z M19.54,12 L22.3,12 L22.3,25.6 L19.54,25.6 L19.54,12 Z M40.26,12 L40.26,25.6 L37.5,25.6 L37.5,15.08 L37.2,15.08 L34.54,25 L31.78,25 L29.12,15.08 L28.82,15.08 L28.82,25.6 L26.06,25.6 L26.06,12 L30.76,12 L33.16,21.9 L35.56,12 L40.26,12 Z M46.78,14.4 L46.78,17.58 L51.62,17.58 L51.62,19.94 L46.78,19.94 L46.78,23.2 L52.82,23.2 L52.82,25.6 L44.02,25.6 L44.02,12 L52.82,12 L52.82,14.4 L46.78,14.4 Z" id="TIME-" fill="#FFFFFF"></path>
                        <path d="M70.1,14.84 L66.46,14.84 L66.46,12.4 L76.46,12.4 L76.46,14.84 L72.86,14.84 L72.86,26 L70.1,26 L70.1,14.84 Z M80.22,25.5 C79.3933292,25.0066642 78.7966685,24.2500051 78.43,23.23 C78.0633315,22.2099949 77.88,20.8866748 77.88,19.26 C77.88,17.6199918 78.0633315,16.2833385 78.43,15.25 C78.7966685,14.2166615 79.3933292,13.4433359 80.22,12.93 C81.0466708,12.4166641 82.1466598,12.16 83.52,12.16 C84.8933402,12.16 85.9933292,12.4166641 86.82,12.93 C87.6466708,13.4433359 88.2433315,14.2166615 88.61,15.25 C88.9766685,16.2833385 89.16,17.6199918 89.16,19.26 C89.16,20.860008 88.9833351,22.1666616 88.63,23.18 C88.2766649,24.1933384 87.6866708,24.9566641 86.86,25.47 C86.0333292,25.9833359 84.920007,26.24 83.52,26.24 C82.1466598,26.24 81.0466708,25.9933358 80.22,25.5 L80.22,25.5 Z M85.21,23.39 C85.6166687,23.0899985 85.9033325,22.6100033 86.07,21.95 C86.2366675,21.2899967 86.32,20.393339 86.32,19.26 C86.32,18.126661 86.2333342,17.2233367 86.06,16.55 C85.8866658,15.8766633 85.5966687,15.3766683 85.19,15.05 C84.7833313,14.7233317 84.2266702,14.56 83.52,14.56 C82.8133298,14.56 82.2566687,14.7233317 81.85,15.05 C81.4433313,15.3766683 81.1533342,15.8766633 80.98,16.55 C80.8066658,17.2233367 80.72,18.126661 80.72,19.26 C80.72,20.3133386 80.7933326,21.1666634 80.94,21.82 C81.0866674,22.4733366 81.3633313,22.9733316 81.77,23.32 C82.1766687,23.6666684 82.7599962,23.84 83.52,23.84 C84.2400036,23.84 84.8033313,23.6900015 85.21,23.39 L85.21,23.39 Z M105.66,13.05 C106.486671,13.4833355 107.063332,14.166662 107.39,15.1 C107.716668,16.033338 107.88,17.3266584 107.88,18.98 C107.88,20.7000086 107.720002,22.059995 107.4,23.06 C107.079998,24.060005 106.503338,24.7999976 105.67,25.28 C104.836663,25.7600024 103.646674,26 102.1,26 L97.52,26 L97.52,12.4 L102.1,12.4 C103.646674,12.4 104.833329,12.6166645 105.66,13.05 L105.66,13.05 Z M104.03,23.08 C104.450002,22.7333316 104.723333,22.2366699 104.85,21.59 C104.976667,20.9433301 105.04,20.020006 105.04,18.82 C105.04,17.753328 104.973334,16.9466694 104.84,16.4 C104.706666,15.8533306 104.433335,15.4500013 104.02,15.19 C103.606665,14.9299987 102.966671,14.8 102.1,14.8 L100.28,14.8 L100.28,23.6 L102.1,23.6 C102.966671,23.6 103.609998,23.4266684 104.03,23.08 L104.03,23.08 Z M110.18,12.4 L115.46,12.4 C118.660016,12.4 120.26,13.8933184 120.26,16.88 C120.26,18.6533422 119.59334,19.9599958 118.26,20.8 L120.2,26 L117.18,26 L115.6,21.44 L112.94,21.44 L112.94,26 L110.18,26 L110.18,12.4 Z M115.5,19.08 C116.12667,19.08 116.606665,18.8833353 116.94,18.49 C117.273335,18.0966647 117.44,17.56667 117.44,16.9 C117.44,16.23333 117.266668,15.7100019 116.92,15.33 C116.573332,14.9499981 116.08667,14.76 115.46,14.76 L112.94,14.76 L112.94,19.08 L115.5,19.08 Z M129.74,23.54 L124.98,23.54 L124.44,26 L121.68,26 L124.74,12.4 L129.98,12.4 L133.04,26 L130.28,26 L129.74,23.54 Z M127.84,14.68 L126.88,14.68 L125.5,21.14 L129.22,21.14 L127.84,14.68 Z M137.52,14.8 L137.52,18.8 L142.36,18.8 L142.36,21.2 L137.52,21.2 L137.52,26 L134.76,26 L134.76,12.4 L143.44,12.4 L143.44,14.8 L137.52,14.8 Z M147.76,14.84 L144.12,14.84 L144.12,12.4 L154.12,12.4 L154.12,14.84 L150.52,14.84 L150.52,26 L147.76,26 L147.76,14.84 Z" id="TO-DRAFT" fill="#202326"></path>
                    </g>
                </g>
            </g>
        </g>
    </g>
</svg>