<svg width="78" height="26" viewBox="0 0 78 26" xmlns="http://www.w3.org/2000/svg"><title>DBD8C46A-9622-487B-BA6A-DE203ED3CFDB</title><g fill="none" fill-rule="evenodd"><path d="M0 0h81v27H0z"/><path fill="#FFF" d="M35.645 1.436h-1.909L33.963 0h5.244l-.226 1.436h-1.89L36.06 8h-1.447zM41.39 0h1.464l-1.272 8h-1.463zM52.884 0l-1.186 8h-1.364l.916-6.188h-.148l-2.179 5.834h-1.365l-.451-5.834h-.148L46.042 8h-1.364l1.186-8h2.324l.322 5.823L50.56 0zM57.021 1.411l-.275 1.871h2.367l-.204 1.39h-2.365l-.281 1.917h2.951L59.007 8h-4.3l1.172-8h4.3l-.206 1.411zM67.558 1.436h-1.909L65.876 0h5.244l-.226 1.436h-1.89L67.973 8h-1.446zM75.777 6.381c.235-.17.424-.443.57-.818.145-.375.268-.885.371-1.528.102-.644.139-1.158.112-1.542-.028-.38-.13-.664-.31-.85-.179-.186-.45-.28-.812-.28-.361 0-.662.094-.9.28-.237.186-.432.47-.582.85-.15.384-.274.898-.375 1.542-.097.598-.136 1.083-.121 1.455.017.372.113.653.29.85.177.198.46.296.85.296.369 0 .67-.084.907-.255m-2.747 1.2c-.38-.281-.616-.712-.712-1.291-.095-.58-.07-1.331.077-2.255.148-.932.362-1.692.644-2.28.28-.586.655-1.025 1.127-1.317C74.634.145 75.222 0 75.926 0c.703 0 1.243.145 1.62.438.377.292.612.731.707 1.317.094.588.068 1.348-.08 2.28-.144.91-.353 1.65-.626 2.227-.271.576-.643 1.01-1.113 1.301-.47.292-1.063.437-1.78.437-.704 0-1.245-.14-1.624-.42"/><path fill="#3BD783" d="M11.493 7.016L10.174 3H3.975l1.318 4.016h2.514L4.728 26h6.2l3.078-18.984z"/><path d="M25.134 13.668c-.33 2.124-.695 3.757-1.091 4.902-.399 1.144-1.01 2.013-1.834 2.626-.824.614-1.987.91-3.492.91h-3.159l2.42-15.09h3.158c1.505 0 2.58 0 3.225.459.646.46 1.01 1.06 1.091 2.026.08.968-.025 2.28-.318 4.167m5.1-6.583c-.31-1.651-1.124-2.514-2.439-3.28-1.316-.767-3.315-.805-6-.805H9.356l1.319 4.016h2.513L10.108 26h7.95c2.684 0 4.815-.238 6.393-1.087 1.579-.85 2.782-2.066 3.612-3.835.83-1.77 1.482-4.13 1.955-7.174.454-2.925.527-5.167.216-6.819" fill="#FFF"/><path fill="#29C571" d="M5.35 6.788L4.03 3H0l1.319 3.788 2.381.106L.666 26h4.728L8.433 6.866z"/><g fill="#FFF"><path d="M37 18.076c.487 0 .892-.182 1.216-.547.325-.365.529-.807.613-1.328.082-.505.005-.938-.234-1.294-.24-.358-.593-.536-1.064-.536h-2.072l-.599 3.705H37zM31.95 11h6.126c1.912 0 3.28.44 4.103 1.317.821.878 1.094 2.173.817 3.884-.276 1.711-1.13 3.148-2.562 4.308L41.209 26h-4.442l-.383-4.531h-2.072L33.58 26h-4.054l2.424-15zM50.79 14.26h-1.002l-2.078 6.383h3.096l-.016-6.384zm.144 9.82h-4.463L45.865 26h-4.1l5.362-15h7.379l.514 15h-4.1l.014-1.92zM79.248 11H58.32l-2.423 15h4.053l.754-4.643h4.872l.559-3.452h-4.872l.552-3.334h5.869l3.289-.06L69.104 26h4.1l1.87-11.529 5.402-.004z"/></g></g></svg>