<svg width="87" height="28" viewBox="0 0 87 28" xmlns="http://www.w3.org/2000/svg"><title>D7843C8B-B8CD-4F01-B39B-32077BEBF262</title><g fill="none" fill-rule="evenodd"><path fill="#363636" d="M37.093 1.436H35L35.248 0H41l-.248 1.436H38.68L37.548 8h-1.587zM43.394 0H45l-1.396 8H42zM56 0l-1.301 8h-1.496l1.005-6.188h-.162l-2.39 5.834h-1.497l-.495-5.834h-.163L48.496 8H47l1.301-8h2.549l.353 5.823L53.452 0zM60.537 1.411l-.301 1.871h2.595l-.223 1.39h-2.594l-.308 1.917h3.237L62.716 8H58l1.285-8H64l-.226 1.411zM72.093 1.436H70L70.248 0H76l-.248 1.436H73.68L72.548 8h-1.587zM81.108 6.45c.257-.171.465-.444.625-.818.159-.375.294-.884.407-1.527.111-.644.152-1.157.122-1.54-.03-.38-.143-.664-.34-.85-.196-.186-.493-.279-.89-.279s-.727.093-.987.279c-.26.186-.474.47-.638.85-.164.383-.3.896-.412 1.54-.106.598-.15 1.082-.132 1.453.018.372.123.653.318.85.194.197.505.296.932.296.404 0 .736-.084.995-.255m-3.013 1.198c-.416-.28-.675-.71-.781-1.29-.105-.578-.077-1.33.085-2.252.161-.93.397-1.69.706-2.278.308-.585.718-1.024 1.235-1.316C79.854.22 80.5.074 81.27.074c.772 0 1.364.145 1.778.437.413.292.671.73.775 1.316.104.587.074 1.347-.087 2.278-.159.909-.387 1.649-.687 2.225-.298.575-.706 1.009-1.221 1.3-.516.291-1.166.436-1.953.436-.772 0-1.365-.14-1.78-.42"/><path fill="#0BC36F" d="M12.605 7.365L11.159 3h-6.8l1.446 4.365h2.757L5.185 28h6.8L15.36 7.365z"/><path d="M24.368 19.924c-.436 1.244-1.106 2.188-2.01 2.854-.904.667-2.18.99-3.83.99h-1.465l2.653-16.403h1.465c1.65 0 2.829 0 3.537.5.708.5 1.107 1.15 1.196 2.201.089 1.052-.027 2.478-.349 4.53-.362 2.308-.761 4.083-1.197 5.328zm4.116-16.05C27.041 3.041 24.848 3 21.904 3H10.26l1.446 4.365h2.757L11.086 28h6.718c2.944 0 5.281-.259 7.012-1.182 1.732-.923 3.052-2.245 3.962-4.168.91-1.924 1.625-4.49 2.144-7.797.498-3.18.578-5.617.237-7.412-.34-1.796-1.233-2.733-2.675-3.567z" fill="#363636"/><path fill="#3BD783" d="M5.867 7.117L4.421 3H0l1.446 4.117 2.612.116L.731 28h5.185L9.248 7.202z"/><g fill="#363636"><path d="M38.774 19c.534 0 .978-.205 1.334-.618.356-.412.58-.912.672-1.501.09-.572.005-1.06-.257-1.464-.262-.404-.65-.606-1.167-.606h-2.272l-.657 4.19h2.347zm-5.539-8h6.719c2.097 0 3.598.497 4.5 1.489.9.993 1.2 2.457.896 4.392-.303 1.935-1.24 3.559-2.81 4.87l.85 6.21H38.52l-.42-5.124h-2.273l-.803 5.124h-4.446L33.235 11zM53.898 14.685H52.8l-2.279 7.219h3.396l-.018-7.219zm.158 11.105H49.16l-.665 2.17H44L49.88 11h8.093l.564 16.96h-4.496l.015-2.17zM85.109 11H62.158L59.5 27.945h4.445l.827-5.245h5.343l.613-3.9h-5.343l.605-3.766h6.437l3.607-.067-2.05 12.978h4.496l2.05-13.024 5.926-.005z"/></g></g></svg>