<?xml version="1.0" encoding="UTF-8"?>
<svg width="81px" height="26px" viewBox="0 0 81 26" version="1.1" xmlns="http://www.w3.org/2000/svg" xmlns:xlink="http://www.w3.org/1999/xlink">
    <!-- Generator: sketchtool 41.2 (35397) - http://www.bohemiancoding.com/sketch -->
    <title>5542E9AC-F7FF-46E8-AD59-45C3724F76AC</title>
    <desc>Created with sketchtool.</desc>
    <defs></defs>
    <g id="Symbols" stroke="none" stroke-width="1" fill="none" fill-rule="evenodd">
        <g id="Menu_signed_dark" transform="translate(-40.000000, -18.000000)">
            <g id="Logo-Light" transform="translate(40.000000, 18.000000)">
                <rect id="Rectangle-16" x="0" y="0" width="81" height="27"></rect>
                <g id="Logo_light" stroke-width="1" fill-rule="evenodd" transform="translate(0.000000, -1.000000)">
                    <g id="Page-1-Copy" transform="translate(0.000000, 0.431903)">
                        <polygon id="Fill-1" fill="#FFFFFF" points="35.6449416 2.00421638 33.7364078 2.00421638 33.9626847 0.568097198 39.2071766 0.568097198 38.9808997 2.00421638 37.091885 2.00421638 36.0596621 8.5680972 34.6127188 8.5680972"></polygon>
                        <polygon id="Fill-2" fill="#FFFFFF" points="41.390059 0.568097198 42.8543558 0.568097198 41.5819282 8.5680972 40.1189714 8.5680972"></polygon>
                        <polygon id="Fill-3" fill="#FFFFFF" points="52.8840987 0.568097198 51.6977558 8.5680972 50.3337739 8.5680972 51.2504779 2.38037657 51.1021424 2.38037657 48.9232242 8.2138028 47.5579929 8.2138028 47.1069668 2.38037657 46.9586313 2.38037657 46.0420409 8.5680972 44.6779454 8.5680972 45.8642883 0.568097198 48.1879074 0.568097198 48.5102474 6.39125403 50.5604795 0.568097198"></polygon>
                        <polygon id="Fill-4" fill="#FFFFFF" points="57.0210182 1.97946448 56.7461216 3.8501173 59.1126573 3.8501173 58.909263 5.23945941 56.5438497 5.23945941 56.2627794 7.15672991 59.2144667 7.15672991 59.0073682 8.5680972 54.7076883 8.5680972 55.8788894 0.568097198 60.1784571 0.568097198 59.9725933 1.97946448"></polygon>
                        <polygon id="Fill-5" fill="#FFFFFF" points="67.5577598 2.00421638 65.6492259 2.00421638 65.8755029 0.568097198 71.1199948 0.568097198 70.8937178 2.00421638 69.0047031 2.00421638 67.9724803 8.5680972 66.525537 8.5680972"></polygon>
                        <g id="Group-20">
                            <path d="M75.7770946,6.9494801 C76.0120129,6.77897567 76.2012658,6.50572469 76.3473248,6.13103272 C76.4920891,5.75634075 76.6151977,5.24639411 76.7180627,4.60262891 C76.8197509,3.95886372 76.8565893,3.44473933 76.8298726,3.0615613 C76.801979,2.68112492 76.6991139,2.39664625 76.5199828,2.21060581 C76.3409693,2.02469592 76.0703895,1.93174098 75.7084786,1.93174098 C75.3465678,1.93174098 75.0456227,2.02469592 74.8081151,2.21060581 C74.5707251,2.39664625 74.3764113,2.68112492 74.2264684,3.0615613 C74.0766432,3.44473933 73.9522401,3.95886372 73.8506696,4.60262891 C73.7541601,5.20135274 73.7147324,5.68584121 73.7300327,6.05779154 C73.7465099,6.42961131 73.8430195,6.71134834 74.020856,6.90861648 C74.1972802,7.10588462 74.4804534,7.20445342 74.8703755,7.20445342 C75.2386418,7.20445342 75.5408815,7.11998453 75.7770946,6.9494801 M73.0302207,8.1482333 C72.650538,7.86793237 72.414325,7.43684077 72.3178154,6.85796126 C72.2226005,6.27895119 72.2480225,5.52669504 72.3952585,4.60262891 C72.5426121,3.67151283 72.7571693,2.91077063 73.0391655,2.32340506 C73.3197494,1.73734504 73.6943712,1.29789794 74.1656203,1.00623875 C74.6341625,0.713274018 75.2221646,0.568097198 75.9256251,0.568097198 C76.6292033,0.568097198 77.1689507,0.713274018 77.5460441,1.00623875 C77.9232553,1.29789794 78.1581736,1.73734504 78.2533886,2.32340506 C78.3474265,2.91077063 78.3207099,3.67151283 78.1734739,4.60262891 C78.0287096,5.51259513 77.8203902,6.25362358 77.5473388,6.82976144 C77.275582,7.40589931 76.9035494,7.83973256 76.4335949,8.13139175 C75.9637582,8.42292038 75.3706952,8.5680972 74.653229,8.5680972 C73.9496508,8.5680972 73.4087265,8.42853423 73.0302207,8.1482333" id="Fill-6" fill="#FFFFFF"></path>
                            <polygon id="Fill-10" fill="#3BD783" points="11.4931 7.58397021 10.1743447 3.5680972 8.46647639 3.5680972 3.97466372 3.5680972 5.29341905 7.58397021 7.80668098 7.58397021 4.72803358 26.5680972 10.9277145 26.5680972 14.0063619 7.58397021"></polygon>
                            <path d="M25.1338503,14.2360813 C24.8039533,16.3596263 24.4394433,17.9932348 24.0425882,19.1378803 C23.6444202,20.2822824 23.0334423,21.1508062 22.2092965,21.7642612 C21.3851508,22.3777162 20.2215596,22.6739173 18.7170908,22.6739173 L15.5581239,22.6739173 L17.9770902,7.58397021 L21.136057,7.58397021 C22.6405259,7.58397021 23.7156751,7.58324005 24.3612659,8.04311836 C25.0067373,8.50372683 25.3704118,9.1022136 25.4522892,10.0691871 C25.5327345,11.0368908 25.4271054,12.3484993 25.1338503,14.2360813 M30.2344831,7.65345699 C29.9239216,6.00183794 29.1103984,5.13927709 27.7954652,4.37224535 C26.4790997,3.60594376 24.4801434,3.5680972 21.7957317,3.5680972 L17.7763352,3.5680972 L13.846813,3.5680972 L9.35500969,3.5680972 L10.6737623,7.58397021 L13.187019,7.58397021 L10.108378,26.5680972 L18.0572967,26.5680972 C20.7417084,26.5680972 22.8727906,26.3300655 24.4506627,25.4806475 C26.0297284,24.6312295 27.2330647,23.4151501 28.0632976,21.6458538 C28.8936498,19.875949 29.5452084,17.5159543 30.0179732,14.4725311 C30.4723574,11.5475152 30.5450446,9.30507603 30.2344831,7.65345699" id="Fill-8" fill="#FFFFFF"></path>
                            <polygon id="Fill-12" fill="#29C571" points="5.3495231 7.3559173 4.03077052 3.5680972 3.2475635 3.5680972 3.53083724e-05 3.5680972 1.31878789 7.3559173 3.70027673 7.46239879 0.666274507 26.5680972 5.39392314 26.5680972 8.43269956 7.43416598"></polygon>
                            <g id="Group-39" transform="translate(29.000000, 11.568097)" fill="#FFFFFF">
                                <path d="M8.00014159,7.07579939 C8.48694862,7.07579939 8.89195362,6.89415207 9.21649164,6.52907309 C9.54102966,6.16446993 9.74480652,5.72194994 9.82891454,5.20115626 C9.91071657,4.69558907 9.83352653,4.26329939 9.59455294,3.90666635 C9.3558221,3.54943852 9.00167029,3.37076513 8.53088384,3.37076513 L6.45888943,3.37076513 L5.86018111,7.07579939 L8.00014159,7.07579939 Z M2.94977659,0 L9.0755834,0 C10.9882216,0 12.3566458,0.43954606 13.1785498,1.31685383 C14.0003325,2.19547012 14.272925,3.49007899 13.9964488,5.20115626 C13.7199725,6.91235249 12.8651777,8.34852018 11.4335208,9.50870765 L12.2091837,15 L7.76735778,15 L7.38383492,10.4690474 L5.31184051,10.4690474 L4.57974876,15 L0.525936366,15 L2.94977659,0 Z" id="Fill-14"></path>
                                <path d="M21.7901311,3.25942139 L20.7881215,3.25942139 L18.7100683,9.64312904 L21.806273,9.64312904 L21.7901311,3.25942139 Z M21.9340729,13.080629 L17.4712709,13.080629 L16.8646765,15 L12.7651273,15 L18.1271405,0 L25.5057951,0 L26.0199076,15 L21.9204797,15 L21.9340729,13.080629 Z" id="Fill-16"></path>
                                <polygon id="Fill-18" points="50.2478693 -1.77635684e-15 39.4993305 -1.77635684e-15 39.3096654 -1.77635684e-15 29.3214858 -1.77635684e-15 26.8979467 15 30.9510525 15 31.704859 10.3571429 36.5769346 10.3571429 37.1358581 6.9047619 32.2637826 6.9047619 32.8155466 3.57142857 38.6846078 3.57142857 41.9735925 3.51154762 40.1048512 15 44.2035833 15 46.0735381 3.47095238 51.4758993 3.46678571"></polygon>
                            </g>
                        </g>
                    </g>
                </g>
            </g>
        </g>
    </g>
</svg>