<?xml version="1.0" encoding="UTF-8"?>
<svg width="18px" height="17px" viewBox="0 0 18 17" version="1.1" xmlns="http://www.w3.org/2000/svg" xmlns:xlink="http://www.w3.org/1999/xlink">
    <!-- Generator: sketchtool 41.2 (35397) - http://www.bohemiancoding.com/sketch -->
    <title>5D8A5E18-70E3-4463-A0CB-F9A69E51F410</title>
    <desc>Created with sketchtool.</desc>
    <defs>
        <path d="M4.57506159,7.16161747 C5.42918569,9.38132064 6.65004588,10.8871803 8,10.8871803 C9.35588009,10.8871803 10.5815304,9.38977248 11.4361654,7.1630566 L12.3848297,7.28466115 C12.5009902,6.37875147 12.7261913,6.12690418 13.5091281,5.74172722 C13.5755851,5.70906828 13.5755851,5.70906828 13.6444216,5.67495313 C14.954013,5.02252128 15.5,4.11114317 15.5,1.77749882 L15.5,1.27757728 L15,1.27757728 L12.6296401,1.27757728 C12.6540716,0.85426441 12.6666667,0.427598615 12.6666667,0 L3.33333333,0 C3.33333333,0.426733226 3.34623843,0.853466451 3.37126179,1.27757728 L1,1.27757728 L0.5,1.27757728 L0.5,1.77749882 C0.5,4.11114317 1.04598699,5.02252128 2.35557839,5.67495313 C2.42441485,5.70906828 2.42441485,5.70906828 2.49087193,5.74172722 C3.27380868,6.12690418 3.49900978,6.37875147 3.61517028,7.28466115 L4.57506159,7.16161747 Z M4.09468557,5.70125566 C3.79848163,4.63999264 3.57837308,3.47804787 3.45296255,2.27742037 L1.5,2.27742037 C1.5,2.27742037 1.83660546,4.29931595 2.80155508,4.780049 C2.86591018,4.81194349 2.86591018,4.81194349 2.93236372,4.84460272 C3.45447763,5.10146414 3.82923781,5.35513513 4.09468557,5.70125566 Z M11.9201568,5.68214339 C12.2108348,4.62921697 12.4266419,3.47512235 12.5495338,2.27742037 L14.4999999,2.27742037 C14.4999999,2.27742037 14.1633945,4.29931595 13.1984449,4.780049 C13.1340898,4.81194349 13.1340898,4.81194349 13.0676363,4.84460272 C12.5551799,5.09671298 12.1846765,5.34574974 11.9201568,5.68214339 Z" id="path-1"></path>
        <mask id="mask-2" maskContentUnits="userSpaceOnUse" maskUnits="objectBoundingBox" x="-1" y="-1" width="17" height="12.8871803">
            <rect x="-0.5" y="-1" width="17" height="12.8871803" fill="white"></rect>
            <use xlink:href="#path-1" fill="black"></use>
        </mask>
        <path d="M9.55555556,11.120477 C9.08888889,11.4315393 8.54444444,11.664836 8,11.664836 C7.45555556,11.664836 6.91111111,11.4315393 6.44444444,11.120477 C6.75555556,12.5980229 4.11111111,12.3647262 4.11111111,13.9978032 L11.8888889,13.9978032 C11.8888889,12.3647262 9.24444444,12.5980229 9.55555556,11.120477 L9.55555556,11.120477 Z" id="path-3"></path>
        <mask id="mask-4" maskContentUnits="userSpaceOnUse" maskUnits="objectBoundingBox" x="-1" y="-1" width="9.77777778" height="4.87732622">
            <rect x="3.11111111" y="10.120477" width="9.77777778" height="4.87732622" fill="white"></rect>
            <use xlink:href="#path-3" fill="black"></use>
        </mask>
    </defs>
    <g id="Design-v.2.2" stroke="none" stroke-width="1" fill="none" fill-rule="evenodd">
        <g id="Home-01" transform="translate(-1102.000000, -4960.000000)">
            <g id="Content" transform="translate(0.000000, 704.000000)">
                <g id="Group-10">
                    <g id="Group-19" transform="translate(767.000000, 3948.380355)">
                        <g id="Bitmap">
                            <g id="Group-22" transform="translate(-269.000000, -120.981014)">
                                <g id="Group-17" transform="translate(543.000000, 422.933626)">
                                    <g id="cup_expert" transform="translate(62.000000, 6.998902)">
                                        <g id="Expert-Copy">
                                            <g id="Layer_1">
                                                <g id="Combined-Shape">
                                                    <use fill="#FFC107" fill-rule="evenodd" xlink:href="#path-1"></use>
                                                    <use stroke="#FFFFFF" mask="url(#mask-2)" stroke-width="2" xlink:href="#path-1"></use>
                                                </g>
                                                <g id="Shape">
                                                    <use fill="#B57E02" fill-rule="evenodd" xlink:href="#path-3"></use>
                                                    <use stroke="#FFFFFF" mask="url(#mask-4)" stroke-width="2" xlink:href="#path-3"></use>
                                                </g>
                                            </g>
                                        </g>
                                    </g>
                                </g>
                            </g>
                        </g>
                    </g>
                </g>
            </g>
        </g>
    </g>
</svg>