<svg xmlns="http://www.w3.org/2000/svg" width="22" height="20" viewBox="0 0 22 20">
    <g id="Symbols" stroke="none" stroke-width="1" fill="none" fill-rule="evenodd">
        <g id="Expert_big" transform="translate(1.000000, 0.000000)">
            <g id="Layer_1">
                <g>
                    <path d="M3.33333333,0 C3.33333333,7.77777778 6.33333333,15.5555556 10,15.5555556 C13.6666667,15.5555556 16.6666667,7.88888889 16.6666667,0 L3.33333333,0 L3.33333333,0 Z" id="Shape" fill="#FFC107"></path>
                    <path d="M12.2222222,15.8888889 C11.5555556,16.3333333 10.7777778,16.6666667 10,16.6666667 C9.22222222,16.6666667 8.44444444,16.3333333 7.77777778,15.8888889 C8.22222222,18 4.44444444,17.6666667 4.44444444,20 L15.5555556,20 C15.5555556,17.6666667 11.7777778,18 12.2222222,15.8888889 L12.2222222,15.8888889 Z" id="Shape" fill="#B57E02"></path>
                    <path d="M15.5555556,1.11111111 L20,1.11111111 C20,7.88888889 16.1111111,4.55555556 15.5555556,8.88888889" id="Shape" stroke="#FFC107"></path>
                    <path d="M4.44444444,1.11111111 L0,1.11111111 C0,7.88888889 3.88888889,4.55555556 4.44444444,8.88888889" id="Shape" stroke="#FFC107"></path>
                </g>
            </g>
        </g>
    </g>
</svg>