<svg width="62px" height="62px" viewBox="0 0 62 62" version="1.1" xmlns="http://www.w3.org/2000/svg" xmlns:xlink="http://www.w3.org/1999/xlink" fill="black" stroke="black">
    <defs>
        <polygon id="path-1" points="0.857864376 0 29.1421356 0 61 31.8578644 61 60.1421356"></polygon>
        <filter x="-50%" y="-50%" width="200%" height="200%" filterUnits="objectBoundingBox" id="filter-2">
            <feOffset dx="0" dy="1" in="SourceAlpha" result="shadowOffsetOuter1"></feOffset>
            <feGaussianBlur stdDeviation="0.5" in="shadowOffsetOuter1" result="shadowBlurOuter1"></feGaussianBlur>
            <feColorMatrix values="0 0 0 0 0   0 0 0 0 0   0 0 0 0 0  0 0 0 0.346212636 0" type="matrix" in="shadowBlurOuter1"></feColorMatrix>
        </filter>
    </defs>
    <g id="Symbols" stroke="none" stroke-width="1" fill-rule="evenodd">
        <g id="Hot-Tourneys-L-Darker" transform="translate(-584.000000, -160.000000)">
            <g id="New-Copy-3" transform="translate(584.000000, 160.000000)">
                <g id="Combined-Shape">
                    <use fill="black" fill-opacity="1" filter="url(#filter-2)" xlink:href="#path-1"></use>
                    <use fill-rule="evenodd" xlink:href="#path-1"></use>
                </g>
                <path d="M32.9072266,29 L31.1777344,29 L26.7412109,21.9384766 L26.7412109,29 L25.0117188,29 L25.0117188,19.046875 L26.7412109,19.046875 L31.1914063,26.1357422 L31.1914063,19.046875 L32.9072266,19.046875 L32.9072266,29 Z M40.7685547,24.5566406 L36.6806641,24.5566406 L36.6806641,27.6191406 L41.4589844,27.6191406 L41.4589844,29 L34.9511719,29 L34.9511719,19.046875 L41.4111328,19.046875 L41.4111328,20.4414063 L36.6806641,20.4414063 L36.6806641,23.1894531 L40.7685547,23.1894531 L40.7685547,24.5566406 Z M50.6738281,26.5390625 L52.2050781,19.046875 L53.9208984,19.046875 L51.6240234,29 L49.9697266,29 L48.0761719,21.7333984 L46.1416016,29 L44.4804688,29 L42.1835938,19.046875 L43.8994141,19.046875 L45.4443359,26.5253906 L47.3447266,19.046875 L48.7939453,19.046875 L50.6738281,26.5390625 Z" id="NEW" fill="#FFFFFF" transform="translate(39.466309, 24.023438) rotate(45.000000) translate(-39.466309, -24.023438) "></path>
            </g>
        </g>
    </g>
</svg>